<?xml version="1.0" encoding="utf-8"?>
<!-- Generator: Adobe Illustrator 27.1.0, SVG Export Plug-In . SVG Version: 6.00 Build 0)  -->
<svg version="1.1" id="Capa_1" xmlns="http://www.w3.org/2000/svg" xmlns:xlink="http://www.w3.org/1999/xlink" x="0px" y="0px"
	 viewBox="0 0 683 768" style="enable-background:new 0 0 683 768;" xml:space="preserve">
<style type="text/css">
	.st0{fill:#002E6D;}
	.st1{fill-rule:evenodd;clip-rule:evenodd;fill:#002E6D;}
	.st2{fill-rule:evenodd;clip-rule:evenodd;}
	.st3{fill:#FFFFFF;}
	.st4{fill-rule:evenodd;clip-rule:evenodd;fill:#FFFFFF;}
</style>
<g>
	<g>
		<g>
			<path d="M589.35,648.85H93.65c-11.12,0-20.18-8.99-20.18-20.05V139.21c0-11.06,9.05-20.06,20.18-20.06h495.69
				c11.14,0,20.18,8.99,20.18,20.06V628.8C609.52,639.86,600.48,648.85,589.35,648.85z M93.65,130.6c-4.78,0-8.65,3.86-8.65,8.61
				V628.8c0,4.73,3.87,8.6,8.65,8.6h495.69c4.78,0,8.65-3.87,8.65-8.6V139.21c0-4.75-3.87-8.61-8.65-8.61H93.65z"/>
		</g>
		<g>
			<g>
				<path d="M406.12,506.58l-264.13,0.48c-10.86,0-19.66-8.74-19.66-19.54v-10.56l281.23,0.01L406.12,506.58z"/>
				<g>
					<path class="st2" d="M420.33,201.64l3.45,17.49c0,0,80.3-16.11,121.39,59.66l16.95-8.23
						C562.12,270.56,524.86,186.22,420.33,201.64z"/>
					<path class="st2" d="M533.36,285.19c0,0-27.34-62.08-106.48-50.4l2.61,13.24l0.67,5.99c0,0,55.51-11.65,85.13,40.89
						L533.36,285.19z"/>
					<path class="st2" d="M433.1,272.38c48.45-7.15,65.73,31.94,65.73,31.94l-7.86,3.81l-9.05,4.77c0,0-13.97-25.71-44.68-21.6
						L433.1,272.38z"/>
				</g>
				<path d="M472.8,369.22h-10.82h-10.82h-37.38c-6.11,0-11.07,4.93-11.07,11V500c0,6.08,4.96,11,11.07,11h59.02
					c6.11,0,11.07-4.93,11.07-11V380.22C483.87,374.14,478.91,369.22,472.8,369.22z M476.18,495.29H410.4V379.4h65.78V495.29z"/>
				<path d="M141.79,477.39h11.92l-1.7-159.06h294.55l0.43,51.19h11.07l0.34-49.19c0.05-7.16-5.78-12.99-12.99-12.99H153.98
					c-6.73,0-12.19,5.42-12.19,12.11V477.39z"/>
			</g>
			<g>
				<polygon class="st2" points="327.68,389.33 334.01,370.55 340.34,389.33 				"/>
				<g>
					<path d="M292.32,439.62c-0.58-0.23-1.17-0.38-1.77-0.53c-0.3-0.06-0.59-0.14-0.89-0.21l-0.9-0.17c-0.3-0.06-0.6-0.1-0.9-0.15
						c-0.3-0.04-0.6-0.11-0.9-0.13c-0.61-0.06-1.2-0.17-1.81-0.21c-2.42-0.24-4.85-0.34-7.28-0.33c-0.61-0.01-1.22-0.02-1.83,0.01
						l-1.83,0.03c-1.22,0.03-2.44,0.11-3.67,0.13c-1.22,0.08-2.45,0.14-3.68,0.19c-1.23,0.08-2.46,0.16-3.71,0.17
						c1.19-0.35,2.4-0.64,3.61-0.93c1.21-0.25,2.44-0.45,3.67-0.65c0.62-0.08,1.23-0.15,1.85-0.21l0.93-0.1
						c0.31-0.03,0.62-0.06,0.93-0.08c1.24-0.06,2.49-0.15,3.74-0.12c2.49-0.01,5,0.2,7.46,0.68c0.31,0.05,0.61,0.12,0.92,0.19
						l0.91,0.22c0.3,0.07,0.6,0.17,0.9,0.26c0.3,0.1,0.6,0.18,0.89,0.29l0.88,0.33c0.29,0.12,0.58,0.24,0.86,0.37
						c0.28,0.13,0.56,0.28,0.84,0.43C291.81,439.27,292.08,439.43,292.32,439.62z"/>
					<path d="M294.57,444.37c-3.08-0.52-6.15-0.87-9.23-1.15c-0.77-0.07-1.54-0.14-2.31-0.19c-0.77-0.05-1.54-0.13-2.31-0.15
						l-2.31-0.12l-2.31-0.08l-0.58-0.02l-0.58,0l-1.16-0.01c-0.77-0.01-1.54-0.03-2.31-0.01l-2.31,0.02c-0.39,0-0.77,0.03-1.16,0.04
						l-1.16,0.04c-1.55,0.02-3.09,0.14-4.64,0.2c-0.78,0.01-1.55,0.1-2.32,0.14c-0.78,0.05-1.55,0.1-2.34,0.12
						c0.75-0.2,1.51-0.38,2.28-0.55c0.76-0.17,1.52-0.35,2.3-0.48c1.54-0.25,3.09-0.52,4.64-0.66c0.78-0.08,1.56-0.17,2.34-0.22
						l2.35-0.12c0.78-0.05,1.57-0.04,2.35-0.05l1.18,0c0.39,0,0.78,0,1.17,0.02l2.35,0.1c0.78,0.05,1.56,0.12,2.34,0.19
						c0.78,0.06,1.56,0.17,2.34,0.26c0.39,0.05,0.78,0.09,1.16,0.15l1.16,0.19C288.58,442.53,291.65,443.23,294.57,444.37z"/>
					<path d="M296.81,449.13c-1.81-0.39-3.62-0.74-5.43-1.04c-1.81-0.31-3.63-0.57-5.45-0.8c-1.82-0.21-3.64-0.43-5.47-0.56
						c-1.82-0.15-3.65-0.27-5.48-0.32c-1.83-0.06-3.66-0.07-5.49-0.05c-1.83,0.03-3.66,0.11-5.48,0.24
						c-3.66,0.25-7.29,0.74-10.95,1.35c1.74-0.62,3.53-1.15,5.34-1.56c0.9-0.22,1.82-0.38,2.73-0.57c0.46-0.09,0.92-0.15,1.38-0.23
						c0.46-0.07,0.92-0.15,1.38-0.2l1.39-0.18c0.46-0.05,0.93-0.09,1.39-0.13l0.7-0.06l0.7-0.05l1.39-0.09
						c1.86-0.08,3.72-0.09,5.59-0.03c1.86,0.08,3.72,0.21,5.57,0.41c1.85,0.22,3.69,0.47,5.52,0.83c1.83,0.34,3.64,0.76,5.43,1.26
						C293.33,447.86,295.1,448.4,296.81,449.13z"/>
				</g>
				<g>
					<path d="M311.47,439.71c0.26-0.18,0.54-0.32,0.81-0.46c0.28-0.13,0.57-0.26,0.86-0.38c0.29-0.11,0.58-0.23,0.88-0.33l0.9-0.28
						c1.21-0.34,2.44-0.59,3.68-0.75c2.48-0.34,5-0.41,7.48-0.26c1.25,0.04,2.48,0.2,3.72,0.33c0.31,0.03,0.62,0.08,0.92,0.13
						l0.92,0.15c0.61,0.1,1.23,0.2,1.84,0.32c1.21,0.27,2.42,0.54,3.62,0.86c1.19,0.36,2.38,0.71,3.55,1.13
						c-1.24-0.08-2.47-0.23-3.69-0.38c-1.23-0.12-2.45-0.25-3.66-0.4c-1.22-0.1-2.44-0.24-3.65-0.34l-1.82-0.14
						c-0.61-0.06-1.22-0.08-1.82-0.11c-2.43-0.15-4.86-0.18-7.29-0.08c-1.21,0.04-2.42,0.15-3.64,0.28l-0.91,0.12
						c-0.3,0.04-0.6,0.11-0.9,0.15C312.66,439.39,312.06,439.51,311.47,439.71z"/>
					<path d="M310.35,444.43c2.96-1,6.06-1.56,9.17-1.94l1.17-0.13c0.39-0.04,0.78-0.07,1.17-0.1c0.78-0.06,1.56-0.13,2.34-0.15
						c0.78-0.03,1.57-0.06,2.35-0.08l2.35,0.01c0.39,0,0.78,0.01,1.17,0.04l1.17,0.05c0.78,0.04,1.56,0.07,2.34,0.16l2.34,0.23
						c0.78,0.09,1.55,0.22,2.32,0.33c1.55,0.21,3.08,0.55,4.61,0.87c0.38,0.08,0.76,0.17,1.14,0.27c0.38,0.1,0.76,0.2,1.13,0.31
						c0.75,0.21,1.5,0.42,2.25,0.65c-0.78-0.06-1.56-0.15-2.33-0.23c-0.77-0.08-1.54-0.2-2.32-0.25c-1.55-0.13-3.08-0.32-4.62-0.41
						c-0.77-0.05-1.54-0.13-2.31-0.18l-2.31-0.12c-0.77-0.06-1.54-0.07-2.31-0.1l-1.16-0.04c-0.39-0.02-0.77-0.03-1.16-0.03
						l-2.31-0.03c-0.77-0.01-1.54,0.02-2.31,0.01c-0.77-0.01-1.54,0.04-2.31,0.05c-0.77,0.01-1.54,0.05-2.31,0.08
						C316.54,443.84,313.45,444.05,310.35,444.43z"/>
					<path d="M308.11,449.44c1.73-0.68,3.52-1.18,5.31-1.64c1.8-0.44,3.62-0.82,5.46-1.11c1.83-0.31,3.68-0.51,5.54-0.68
						c1.85-0.15,3.72-0.23,5.58-0.26c1.86,0,3.73,0.05,5.58,0.18l1.39,0.13c0.46,0.04,0.93,0.09,1.39,0.15
						c0.46,0.06,0.93,0.1,1.39,0.17l1.38,0.22c0.46,0.07,0.92,0.15,1.37,0.24c0.46,0.09,0.92,0.16,1.37,0.26
						c0.91,0.21,1.82,0.4,2.71,0.64c1.8,0.46,3.56,1.04,5.29,1.71c-3.64-0.71-7.26-1.3-10.91-1.65c-1.82-0.17-3.65-0.31-5.48-0.39
						c-1.83-0.07-3.66-0.11-5.48-0.1c-1.83,0-3.66,0.07-5.49,0.17c-1.83,0.08-3.65,0.25-5.48,0.41c-1.82,0.19-3.65,0.39-5.47,0.65
						C311.75,448.8,309.93,449.09,308.11,449.44z"/>
				</g>
				<path class="st2" d="M313.89,359.78c-3.55,0-7.91-3.47-7.91-3.47v-11.66c0-1.64,1.15-10.37,1.15-10.37h-9.88
					c0,0,1.42,8.73,1.42,10.37v11.66c0,0-4.36,3.47-7.91,3.47h-20.09v2.23h63.3v-2.23H313.89z"/>
				<path class="st2" d="M290.89,365.16l0.04,7.38l0.24,2.92c0,1.15,3.16,30.93-0.4,48.56c-1.68,8.32,10.13,26.29,10.13,26.29
					l-0.27-85.08L290.89,365.16z"/>
				<path class="st2" d="M313.49,365.16l-0.04,7.38l-0.24,2.92c0,1.15-3.16,30.93,0.4,48.56c1.68,8.32-10.13,26.29-10.13,26.29
					l0.27-85.08L313.49,365.16z"/>
				<rect x="316.57" y="365.22" class="st2" width="17.39" height="2.05"/>
				<polygon class="st2" points="276.69,389.33 270.35,370.55 264.02,389.33 				"/>
				
					<rect x="270.4" y="365.22" transform="matrix(-1 -1.224647e-16 1.224647e-16 -1 558.2001 732.4915)" class="st2" width="17.39" height="2.05"/>
				<rect x="249.38" y="453.2" class="st2" width="107.69" height="3.49"/>
			</g>
		</g>
	</g>
	<g>
		<g>
			<path d="M222.18,575.96h5.3c2.05,0,3.8,0.31,5.23,0.94c1.43,0.63,2.59,1.43,3.49,2.42c0.9,0.99,1.55,2.12,1.95,3.38
				c0.4,1.26,0.6,2.52,0.6,3.77c0,1.53-0.28,2.91-0.83,4.13c-0.55,1.22-1.29,2.27-2.23,3.12c-0.93,0.86-2.02,1.52-3.26,1.98
				c-1.24,0.46-2.55,0.69-3.94,0.69h-6.3V575.96z M227.95,593.14c1.06,0,2.05-0.15,2.94-0.45c0.9-0.3,1.67-0.74,2.33-1.33
				c0.65-0.59,1.16-1.31,1.53-2.16c0.36-0.85,0.55-1.84,0.55-2.96c0-1.27-0.22-2.35-0.66-3.24c-0.44-0.89-1-1.61-1.67-2.16
				c-0.67-0.55-1.42-0.95-2.24-1.21c-0.82-0.25-1.61-0.38-2.35-0.38h-2.75v13.87H227.95z"/>
			<path d="M242.16,596.39v-20.43h13.56v3.11h-10.15v5.49h9.02v3.19h-9.02v5.44h10.54v3.19H242.16z"/>
			<path d="M259.51,596.39v-20.43h5.77c1.12,0,2.14,0.15,3.07,0.45c0.92,0.3,1.71,0.73,2.35,1.29c0.64,0.56,1.14,1.25,1.5,2.07
				c0.35,0.82,0.53,1.75,0.53,2.77c0,0.56-0.06,1.12-0.17,1.68c-0.11,0.56-0.29,1.1-0.53,1.62c-0.24,0.52-0.56,1-0.95,1.44
				c-0.39,0.44-0.86,0.82-1.4,1.13c0.41,0.65,0.81,1.29,1.21,1.92c0.39,0.63,0.79,1.26,1.19,1.89c0.4,0.64,0.82,1.29,1.25,1.96
				c0.43,0.67,0.9,1.4,1.4,2.19h-4.12c-0.84-1.31-1.63-2.54-2.38-3.71c-0.75-1.17-1.47-2.27-2.16-3.32h-0.28h-2.86v7.03H259.51z
				 M262.93,586.14h2.75c0.71,0,1.3-0.12,1.77-0.36c0.47-0.24,0.84-0.54,1.12-0.88c0.28-0.35,0.48-0.72,0.59-1.12
				c0.11-0.4,0.17-0.77,0.17-1.11c0-0.32-0.05-0.68-0.15-1.08c-0.1-0.4-0.29-0.78-0.56-1.13c-0.27-0.36-0.64-0.65-1.11-0.9
				c-0.47-0.24-1.06-0.36-1.79-0.36h-2.77V586.14z"/>
			<path d="M277.33,596.39v-20.43h13.56v3.11h-10.15v5.49h9.02v3.19h-9.02v5.44h10.54v3.19H277.33z"/>
			<path d="M309.7,594.88c-0.22,0.15-0.54,0.33-0.94,0.53c-0.4,0.21-0.88,0.4-1.43,0.57c-0.55,0.18-1.17,0.33-1.86,0.45
				c-0.69,0.12-1.43,0.18-2.21,0.18c-1.61,0-3.05-0.28-4.32-0.83c-1.27-0.55-2.34-1.29-3.22-2.23c-0.88-0.93-1.55-2.03-2.02-3.28
				c-0.47-1.25-0.7-2.57-0.7-3.95c0-1.53,0.28-2.95,0.84-4.25c0.56-1.3,1.32-2.42,2.28-3.36c0.96-0.94,2.08-1.68,3.36-2.2
				c1.28-0.52,2.65-0.78,4.11-0.78c0.56,0,1.12,0.04,1.7,0.13c0.57,0.08,1.11,0.19,1.61,0.32c0.5,0.13,0.95,0.28,1.33,0.45
				c0.38,0.17,0.66,0.35,0.83,0.53c-0.17,0.26-0.3,0.48-0.39,0.64c-0.09,0.17-0.19,0.34-0.29,0.52c-0.1,0.18-0.21,0.38-0.34,0.6
				c-0.12,0.22-0.29,0.53-0.52,0.92c-0.22-0.15-0.5-0.28-0.81-0.39c-0.32-0.11-0.65-0.2-0.99-0.27c-0.35-0.07-0.7-0.12-1.05-0.15
				c-0.36-0.04-0.67-0.06-0.95-0.06c-1.05,0-2.01,0.2-2.9,0.59c-0.89,0.39-1.65,0.91-2.3,1.56c-0.64,0.64-1.15,1.4-1.51,2.26
				c-0.36,0.86-0.55,1.75-0.55,2.66c0,0.9,0.17,1.77,0.52,2.62c0.35,0.85,0.83,1.6,1.46,2.26c0.62,0.65,1.37,1.18,2.23,1.58
				c0.86,0.4,1.81,0.6,2.86,0.6c0.6,0,1.18-0.06,1.74-0.18c0.56-0.12,1.06-0.26,1.49-0.41c0.43-0.15,0.78-0.3,1.05-0.45
				c0.27-0.15,0.42-0.25,0.43-0.31L309.7,594.88z"/>
			<path d="M312.25,596.39v-20.43h3.45v8.52h9.75v-8.52h3.47c0,0.22,0,0.85,0,1.88c0,1.03,0,2.27,0,3.71c0,1.45,0,2.99-0.01,4.62
				c-0.01,1.63-0.01,3.18-0.01,4.62c0,1.45,0,2.69,0,3.71c0,1.03,0,1.65,0,1.88h-3.45v-8.63h-9.75v8.63H312.25z"/>
			<path d="M332.29,586.22c0-1.42,0.28-2.76,0.83-4.04c0.55-1.27,1.3-2.38,2.24-3.34c0.94-0.95,2.05-1.71,3.31-2.27
				c1.26-0.56,2.61-0.84,4.05-0.84c1.42,0,2.76,0.28,4.04,0.84c1.27,0.56,2.38,1.32,3.33,2.27c0.95,0.95,1.71,2.06,2.26,3.34
				c0.55,1.27,0.83,2.62,0.83,4.04c0,1.44-0.28,2.79-0.83,4.05c-0.55,1.26-1.3,2.36-2.26,3.31c-0.95,0.94-2.06,1.69-3.33,2.23
				c-1.27,0.54-2.62,0.81-4.04,0.81c-1.44,0-2.79-0.27-4.05-0.81c-1.26-0.54-2.36-1.28-3.31-2.23c-0.94-0.94-1.69-2.05-2.24-3.31
				C332.56,589.01,332.29,587.66,332.29,586.22z M335.73,586.22c0,0.99,0.18,1.92,0.55,2.79c0.36,0.87,0.87,1.63,1.51,2.27
				c0.64,0.64,1.39,1.15,2.24,1.53c0.85,0.37,1.77,0.56,2.76,0.56c0.95,0,1.85-0.19,2.7-0.56c0.85-0.37,1.59-0.88,2.21-1.53
				c0.62-0.64,1.12-1.4,1.48-2.27c0.36-0.87,0.55-1.8,0.55-2.79c0-0.99-0.19-1.92-0.56-2.79c-0.37-0.87-0.88-1.63-1.51-2.28
				c-0.63-0.65-1.38-1.17-2.23-1.54c-0.85-0.37-1.76-0.56-2.73-0.56c-0.97,0-1.88,0.19-2.73,0.56c-0.85,0.37-1.59,0.89-2.21,1.54
				c-0.63,0.65-1.12,1.41-1.49,2.28C335.92,584.3,335.73,585.23,335.73,586.22z"/>
			<path d="M374.97,577.11l-1.23,2.8c-0.78-0.28-1.56-0.5-2.33-0.67c-0.77-0.17-1.48-0.25-2.13-0.25c-1.14,0-2.04,0.22-2.71,0.67
				c-0.66,0.45-0.99,1.02-0.99,1.71c0,0.6,0.25,1.08,0.74,1.46c0.5,0.37,1.12,0.71,1.86,1.01c0.75,0.3,1.56,0.6,2.42,0.91
				c0.87,0.31,1.68,0.71,2.42,1.19c0.75,0.49,1.37,1.1,1.86,1.85c0.5,0.75,0.74,1.7,0.74,2.86c0,0.9-0.16,1.71-0.49,2.44
				c-0.33,0.73-0.82,1.35-1.47,1.88c-0.65,0.52-1.48,0.93-2.48,1.22c-1,0.29-2.17,0.43-3.52,0.43c-0.82,0-1.57-0.06-2.24-0.17
				c-0.67-0.11-1.27-0.25-1.81-0.42c-0.53-0.17-1-0.35-1.42-0.55c-0.41-0.2-0.77-0.39-1.06-0.57l1.49-3
				c0.78,0.43,1.62,0.76,2.52,0.99c0.9,0.23,1.69,0.35,2.38,0.35c0.34,0,0.77-0.04,1.3-0.11c0.53-0.07,1.05-0.21,1.55-0.42
				c0.5-0.21,0.94-0.49,1.3-0.84c0.36-0.35,0.55-0.81,0.55-1.37c0-0.65-0.25-1.19-0.74-1.61c-0.5-0.42-1.12-0.79-1.86-1.12
				c-0.75-0.33-1.56-0.65-2.42-0.97c-0.87-0.32-1.68-0.7-2.42-1.13c-0.75-0.44-1.37-0.98-1.86-1.63c-0.5-0.64-0.74-1.46-0.74-2.45
				c0-0.71,0.14-1.41,0.42-2.09c0.28-0.68,0.7-1.29,1.28-1.83c0.57-0.54,1.28-0.98,2.13-1.32c0.85-0.34,1.85-0.5,3.01-0.5
				c0.73,0,1.43,0.06,2.12,0.18c0.68,0.12,1.29,0.26,1.84,0.41c0.54,0.15,0.99,0.29,1.34,0.43
				C374.68,577.02,374.89,577.1,374.97,577.11z"/>
			<path d="M386.63,596.62c-1.1,0-2.13-0.18-3.1-0.55c-0.96-0.36-1.8-0.87-2.51-1.53c-0.71-0.65-1.27-1.44-1.68-2.37
				c-0.41-0.92-0.62-1.95-0.62-3.07v-13.14h3.42v13.06c0,0.6,0.12,1.16,0.35,1.68c0.23,0.52,0.55,0.98,0.95,1.37
				c0.4,0.39,0.87,0.71,1.42,0.94c0.54,0.23,1.13,0.35,1.77,0.35c0.63,0,1.23-0.12,1.78-0.35c0.55-0.23,1.03-0.55,1.44-0.94
				c0.41-0.39,0.73-0.85,0.97-1.37c0.23-0.52,0.35-1.08,0.35-1.68v-13.06h3.42v13.14c0,1.12-0.21,2.14-0.62,3.07
				c-0.41,0.92-0.98,1.71-1.7,2.37c-0.72,0.65-1.56,1.16-2.54,1.53C388.77,596.44,387.73,596.62,386.63,596.62z"/>
			<path d="M411.06,596.39c-0.06-0.13-0.15-0.36-0.3-0.7c-0.14-0.34-0.31-0.75-0.52-1.23c-0.21-0.49-0.43-1.02-0.67-1.61
				c-0.24-0.59-0.5-1.2-0.76-1.84h-7.03l-2.24,5.38h-3.39c0.07-0.17,0.25-0.58,0.53-1.25s0.63-1.49,1.05-2.47
				c0.42-0.98,0.89-2.07,1.4-3.28c0.51-1.21,1.04-2.43,1.58-3.68c0.54-1.25,1.07-2.48,1.58-3.69c0.51-1.21,0.98-2.3,1.4-3.28
				c0.42-0.98,0.77-1.8,1.05-2.47c0.28-0.66,0.46-1.08,0.53-1.25c0.07,0.17,0.26,0.58,0.55,1.25c0.29,0.66,0.64,1.49,1.06,2.47
				c0.42,0.98,0.89,2.07,1.4,3.28c0.51,1.21,1.04,2.43,1.58,3.69c0.54,1.25,1.07,2.48,1.58,3.68c0.51,1.21,0.98,2.3,1.4,3.28
				c0.42,0.98,0.77,1.8,1.05,2.47c0.28,0.66,0.46,1.08,0.53,1.25H411.06z M402.96,588.13h4.65l-2.02-4.88
				c-0.02-0.02-0.07-0.14-0.14-0.38c-0.07-0.23-0.13-0.44-0.17-0.63c-0.04,0.19-0.09,0.4-0.17,0.63c-0.08,0.23-0.11,0.36-0.11,0.38
				L402.96,588.13z"/>
			<path d="M418.77,602.11h-2.69c0.28-0.56,0.54-1.1,0.79-1.61c0.24-0.51,0.49-1.04,0.73-1.57c0.24-0.53,0.49-1.08,0.76-1.64
				c0.26-0.56,0.55-1.17,0.87-1.82c-0.43-0.84-0.87-1.73-1.33-2.66c-0.46-0.93-0.92-1.88-1.39-2.83c-0.47-0.95-0.93-1.9-1.39-2.83
				c-0.46-0.93-0.89-1.82-1.3-2.66h2.91c0.71,1.38,1.29,2.54,1.74,3.47c0.45,0.93,0.81,1.72,1.09,2.35
				c0.28,0.63,0.49,1.15,0.64,1.56c0.15,0.4,0.27,0.77,0.36,1.11c0.11-0.34,0.24-0.71,0.39-1.11c0.15-0.4,0.36-0.92,0.64-1.56
				c0.28-0.63,0.64-1.42,1.09-2.35c0.45-0.93,1.03-2.09,1.74-3.47h2.89L418.77,602.11z"/>
			<path d="M429.42,596.39v-20.43h13.56v3.11h-10.15v5.49h9.02v3.19h-9.02v5.44h10.54v3.19H429.42z"/>
			<path d="M446.77,575.96h5.3c2.05,0,3.8,0.31,5.23,0.94c1.43,0.63,2.59,1.43,3.49,2.42c0.9,0.99,1.55,2.12,1.95,3.38
				c0.4,1.26,0.6,2.52,0.6,3.77c0,1.53-0.28,2.91-0.83,4.13c-0.55,1.22-1.29,2.27-2.23,3.12c-0.93,0.86-2.02,1.52-3.26,1.98
				c-1.24,0.46-2.55,0.69-3.94,0.69h-6.3V575.96z M452.54,593.14c1.06,0,2.05-0.15,2.94-0.45c0.9-0.3,1.67-0.74,2.33-1.33
				c0.65-0.59,1.16-1.31,1.53-2.16c0.36-0.85,0.55-1.84,0.55-2.96c0-1.27-0.22-2.35-0.66-3.24c-0.44-0.89-1-1.61-1.67-2.16
				c-0.67-0.55-1.42-0.95-2.24-1.21c-0.82-0.25-1.61-0.38-2.35-0.38h-2.75v13.87H452.54z"/>
		</g>
	</g>
</g>
</svg>
