<?xml version="1.0" encoding="utf-8"?>
<!-- Generator: Adobe Illustrator 27.1.0, SVG Export Plug-In . SVG Version: 6.00 Build 0)  -->
<svg version="1.1" id="Capa_1" xmlns="http://www.w3.org/2000/svg" xmlns:xlink="http://www.w3.org/1999/xlink" x="0px" y="0px"
	 viewBox="0 0 683 768" style="enable-background:new 0 0 683 768;" xml:space="preserve">
<style type="text/css">
	.st0{fill:#002E6D;}
	.st1{fill-rule:evenodd;clip-rule:evenodd;fill:#002E6D;}
	.st2{fill-rule:evenodd;clip-rule:evenodd;}
	.st3{fill:#FFFFFF;}
	.st4{fill-rule:evenodd;clip-rule:evenodd;fill:#FFFFFF;}
</style>
<g>
	<g>
		<g>
			<path d="M589.35,650.5H93.65c-11.12,0-20.18-9.05-20.18-20.18V137.68c0-11.13,9.05-20.18,20.18-20.18h495.69
				c11.14,0,20.18,9.05,20.18,20.18v492.64C609.52,641.45,600.48,650.5,589.35,650.5z M93.65,129.02c-4.78,0-8.65,3.88-8.65,8.66
				v492.64c0,4.76,3.87,8.65,8.65,8.65h495.69c4.78,0,8.65-3.89,8.65-8.65V137.68c0-4.78-3.87-8.66-8.65-8.66H93.65z"/>
		</g>
		<g>
			<g>
				<path d="M406.12,507.34l-264.13,0.48c-10.86,0-19.66-8.8-19.66-19.66v-10.63l281.23,0.01L406.12,507.34z"/>
				<g>
					<path class="st2" d="M420.33,200.51l3.45,17.59c0,0,80.3-16.21,121.39,60.03l16.95-8.28
						C562.12,269.85,524.86,184.98,420.33,200.51z"/>
					<path class="st2" d="M533.36,284.57c0,0-27.34-62.47-106.48-50.72l2.61,13.32l0.67,6.03c0,0,55.51-11.72,85.13,41.14
						L533.36,284.57z"/>
					<path class="st2" d="M433.1,271.68c48.45-7.2,65.73,32.14,65.73,32.14l-7.86,3.84l-9.05,4.8c0,0-13.97-25.87-44.68-21.73
						L433.1,271.68z"/>
				</g>
				<path d="M472.8,369.12h-10.82h-10.82h-37.38c-6.11,0-11.07,4.96-11.07,11.07v120.53c0,6.11,4.96,11.07,11.07,11.07h59.02
					c6.11,0,11.07-4.96,11.07-11.07V380.19C483.87,374.08,478.91,369.12,472.8,369.12z M476.18,495.99H410.4V379.37h65.78V495.99z"
					/>
				<path d="M141.79,477.97h11.92l-1.7-160.05h294.55l0.43,51.5h11.07l0.34-49.5c0.05-7.21-5.78-13.07-12.99-13.07H153.98
					c-6.73,0-12.19,5.46-12.19,12.19V477.97z"/>
			</g>
			<g>
				<g>
					<path d="M382.51,381.98c0,0-4.47,14.64-23.31,11.92c-7.05-1.02-8.22,4.42-12.63,1.39c-14.61-10.02-25.08-7.39-29.94-5.15
						l4.6,8.52c2.89,4.24,7.87,9.7,15.08,11.42c0,0-14.01-1.35-23.1-9.84c-0.06-0.05-0.13-0.11-0.19-0.17
						c-0.01,0.03-0.02,0.05-0.02,0.08c-2.02,7-8.17,4.11-8.17,4.11c-3.27,2.04-5.57-0.19-5.57-0.19c-7.73,2.74-8.45-3.23-8.51-3.93
						c-0.01-0.05-0.01-0.07-0.01-0.07c-0.05,0.05-0.09,0.09-0.15,0.14c-9.09,8.51-23.14,9.87-23.14,9.87
						c7.73-1.84,12.88-7.97,15.67-12.3c0.01-0.01,0.01-0.02,0.02-0.04c1.03-1.61,1.73-2.97,2.11-3.77l1.91-3.41
						c-5.03-2.19-15.32-4.41-29.54,5.33c-4.4,3.03-5.58-2.42-12.63-1.4c-18.83,2.73-23.31-11.92-23.31-11.92s19.77,1.97,48.07-3.96
						c8.66-1.81,14.4,0,17.79,2.9c0.16,1.47,0.89,5.69,4.07,8.36c1.52,1.28,5.32,2.55,8.22,3.13l4.06,0.17
						c3.87-0.49,11.68-2.71,12.41-11.95c3.34-3.08,9.16-5.1,18.14-3.22C362.75,383.94,382.51,381.98,382.51,381.98z"/>
				</g>
				<g>
					<polygon points="300.22,360.92 302.02,357.37 303.74,360.97 307.67,361.59 304.79,364.33 305.41,368.27 301.91,366.37 
						298.36,368.18 299.08,364.26 296.27,361.44 					"/>
				</g>
				<g>
					<g>
						<g>
							<g>
								<g>
									<path d="M301.46,430.54c0,0-1.27-5.47-6.19-6.04c0,0,0.33,1.56,0.68,2.56C296.38,428.24,297.62,430.07,301.46,430.54z"/>
								</g>
								<g>
									<path d="M303.42,430.8c0,0,1.27-5.47,6.19-6.04c0,0-0.33,1.56-0.68,2.56C308.51,428.5,307.26,430.33,303.42,430.8z"/>
								</g>
								<g>
									<path d="M301.52,426.1c0,0-1.09-4.66-5.28-5.16c0,0,0.28,1.33,0.58,2.18C297.17,424.13,298.24,425.69,301.52,426.1z"/>
								</g>
								<g>
									<path d="M303.18,426.32c0,0,1.09-4.66,5.28-5.16c0,0-0.28,1.33-0.58,2.18C307.53,424.36,306.46,425.92,303.18,426.32z"/>
								</g>
								<g>
									<path d="M301.62,421.96c0,0-0.97-4.19-4.74-4.63c0,0,0.25,1.19,0.52,1.96C297.72,420.2,298.67,421.6,301.62,421.96z"/>
								</g>
								<g>
									<path d="M303.11,422.16c0,0,0.97-4.19,4.74-4.63c0,0-0.25,1.19-0.52,1.96C307.01,420.4,306.06,421.8,303.11,422.16z"/>
								</g>
								<g>
									<path d="M301.66,418.15c0,0-0.85-3.66-4.15-4.05c0,0,0.22,1.04,0.46,1.71C298.25,416.61,299.09,417.83,301.66,418.15z"/>
								</g>
								<g>
									<path d="M302.97,418.32c0,0,0.85-3.66,4.15-4.05c0,0-0.22,1.04-0.46,1.71C306.38,416.78,305.55,418,302.97,418.32z"/>
								</g>
								<g>
									<path d="M302.54,433.96h-0.33c-0.04,0-0.08-0.03-0.08-0.08v-16.82c0-0.04,0.03-0.08,0.08-0.08h0.33
										c0.04,0,0.08,0.03,0.08,0.08v16.82C302.61,433.92,302.58,433.96,302.54,433.96z"/>
								</g>
								<g>
									<path d="M302.51,416.06c0,0,2.64-4.25-0.09-7.71c0,0-0.78,1.19-1.18,2.04C300.75,411.41,300.39,413.34,302.51,416.06z"/>
								</g>
							</g>
						</g>
					</g>
					<g>
						<path d="M314.73,411.26l-2.89,5.01c-0.37,0.63-1.28,0.63-1.65,0l-2.89-5.01h2.25v-4.53h2.55v4.53H314.73z"/>
					</g>
					<g>
						<path d="M297.35,411.29l-2.97,5.14c-0.33,0.58-1.16,0.58-1.5,0l-2.97-5.14h2.25v-4.53h2.55v4.53H297.35z"/>
					</g>
					<path d="M278.83,411.31h-5.66v4.77h7.77c0.27,1.33,0.72,2.6,1.32,3.78l-6.18,6.18l3.37,3.37l5.64-5.64
						c1.13,1.13,2.43,2.09,3.87,2.83v9.14h4.77V424.5c-5.43-1.05-9.53-5.82-9.53-11.55c0-0.56,0.04-1.1,0.12-1.64h-3.6H278.83z"/>
					<path d="M331.25,416.07v-4.77h-5.96h-1.58h-3.6c0.07,0.54,0.12,1.08,0.12,1.64c0,5.63-3.95,10.33-9.23,11.49v11.3h4.77v-9.29
						c1.32-0.72,2.53-1.62,3.58-2.67l5.93,5.93l3.37-3.37l-6.48-6.48c0.6-1.18,1.05-2.45,1.32-3.78H331.25z"/>
				</g>
				<g>
					<g>
						<path d="M311.79,381.45c0,1.52-1.23,2.75-2.75,2.75c-1.28,0-2.35-0.88-2.66-2.06l4.58-2.65
							C311.47,379.99,311.79,380.69,311.79,381.45z"/>
					</g>
					<g>
						<path d="M304.72,383.27l-1.61-2.79l19.13-11.05l1.61,2.79L304.72,383.27z M303.5,380.58l1.32,2.3l18.64-10.76l-1.32-2.3
							L303.5,380.58z"/>
					</g>
					<path d="M315.13,377.09l-2.17,1.26c0.7,0.84,1.12,1.93,1.12,3.11c0,2.68-2.17,4.86-4.86,4.86c-2.3,0-4.22-1.59-4.73-3.73
						l-1.18-2.05l9.88-5.7c-1.02-0.82-2.41-1.59-4.28-2.29c-4.27-1.61-8.96-1.68-13.31-0.29c-2.25,0.72-3.82,1.53-4.91,2.43
						l10.15,5.86l-1.18,2.05l0,0c-0.51,2.14-2.44,3.73-4.73,3.73c-2.69,0-4.86-2.18-4.86-4.86c0-1.18,0.42-2.27,1.12-3.11l1.99,1.15
						l3.06,1.77l-3.06-1.77l-1.99-1.15l-2.35-1.36c-0.65,1.42-0.65,2.94-0.65,4.45c0.01,4.27,3.32,7.93,7.59,8.03
						c1.81,0.04,3.49-0.53,4.83-1.53l-0.61-1.06l-0.65-1.12h5.54l-0.74,1.29l-0.51,0.88c1.3,0.97,2.93,1.54,4.69,1.53
						c4.27-0.03,7.77-3.8,7.73-8.07C316.01,379.91,315.87,378.46,315.13,377.09z"/>
					<g>
						<path d="M297.75,382.14c-0.31,1.18-1.38,2.06-2.66,2.06c-1.53,0-2.75-1.23-2.75-2.75c0-0.76,0.31-1.46,0.82-1.96
							L297.75,382.14z"/>
					</g>
					<g>
						<path d="M299.42,383.27l-19.14-11.05l1.61-2.79l19.13,11.05L299.42,383.27z M280.67,372.12l18.64,10.76l1.32-2.3l-18.64-10.76
							L280.67,372.12z"/>
					</g>
					<g>
						<path d="M302.1,390.84l-3.02-5.22h6.03L302.1,390.84z M299.58,385.9l2.52,4.37l2.52-4.37H299.58z"/>
					</g>
				</g>
			</g>
		</g>
		<g>
			<path d="M211.28,594.85v-20.44h13.57v3.11H214.7v5.5h9.03v3.2h-9.03v5.44h10.54v3.2H211.28z"/>
			<path d="M243.67,593.34c-0.22,0.15-0.54,0.33-0.94,0.53c-0.4,0.21-0.88,0.4-1.43,0.58c-0.55,0.18-1.17,0.33-1.86,0.45
				c-0.69,0.12-1.43,0.18-2.22,0.18c-1.61,0-3.05-0.28-4.32-0.83c-1.27-0.55-2.35-1.29-3.22-2.23c-0.88-0.93-1.55-2.03-2.02-3.28
				c-0.47-1.25-0.7-2.57-0.7-3.95c0-1.53,0.28-2.95,0.84-4.25c0.56-1.3,1.32-2.42,2.29-3.37c0.96-0.94,2.08-1.68,3.37-2.2
				c1.28-0.52,2.65-0.79,4.11-0.79c0.56,0,1.13,0.04,1.7,0.13s1.11,0.19,1.61,0.32c0.5,0.13,0.95,0.28,1.33,0.45
				c0.38,0.17,0.66,0.35,0.83,0.53c-0.17,0.26-0.3,0.48-0.39,0.64c-0.09,0.17-0.19,0.34-0.29,0.52c-0.1,0.18-0.22,0.38-0.34,0.6
				c-0.12,0.22-0.3,0.53-0.52,0.92c-0.22-0.15-0.5-0.28-0.81-0.39c-0.32-0.11-0.65-0.2-1-0.27c-0.35-0.06-0.7-0.12-1.05-0.15
				c-0.36-0.04-0.67-0.06-0.95-0.06c-1.05,0-2.01,0.2-2.9,0.59c-0.89,0.39-1.66,0.91-2.3,1.56c-0.65,0.64-1.15,1.4-1.51,2.26
				c-0.36,0.86-0.55,1.75-0.55,2.66c0,0.9,0.17,1.77,0.52,2.62c0.35,0.85,0.83,1.6,1.46,2.26c0.63,0.65,1.37,1.18,2.23,1.58
				c0.86,0.4,1.81,0.6,2.86,0.6c0.6,0,1.18-0.06,1.74-0.18c0.56-0.12,1.06-0.26,1.49-0.41c0.43-0.15,0.78-0.3,1.05-0.45
				c0.27-0.15,0.41-0.25,0.43-0.31L243.67,593.34z"/>
			<path d="M244.31,584.67c0-1.42,0.28-2.77,0.83-4.04c0.55-1.27,1.3-2.38,2.24-3.34c0.94-0.95,2.05-1.71,3.31-2.27
				c1.26-0.56,2.61-0.84,4.05-0.84c1.42,0,2.77,0.28,4.04,0.84c1.27,0.56,2.38,1.32,3.34,2.27c0.95,0.95,1.71,2.07,2.26,3.34
				c0.55,1.27,0.83,2.62,0.83,4.04c0,1.44-0.28,2.79-0.83,4.05c-0.55,1.26-1.3,2.37-2.26,3.31c-0.95,0.94-2.07,1.69-3.34,2.23
				c-1.27,0.54-2.62,0.81-4.04,0.81c-1.44,0-2.79-0.27-4.05-0.81c-1.26-0.54-2.37-1.29-3.31-2.23c-0.94-0.94-1.69-2.05-2.24-3.31
				C244.59,587.46,244.31,586.11,244.31,584.67z M247.76,584.67c0,0.99,0.18,1.92,0.55,2.79c0.36,0.87,0.87,1.63,1.51,2.27
				c0.65,0.64,1.39,1.15,2.24,1.53c0.85,0.38,1.77,0.56,2.76,0.56c0.95,0,1.85-0.19,2.71-0.56c0.85-0.37,1.59-0.88,2.21-1.53
				c0.63-0.65,1.12-1.4,1.49-2.27c0.36-0.87,0.55-1.8,0.55-2.79c0-0.99-0.19-1.92-0.56-2.79c-0.37-0.87-0.88-1.63-1.51-2.29
				c-0.64-0.65-1.38-1.17-2.23-1.54c-0.85-0.37-1.76-0.56-2.73-0.56c-0.97,0-1.88,0.19-2.73,0.56c-0.85,0.37-1.59,0.89-2.22,1.54
				c-0.63,0.65-1.12,1.42-1.49,2.29C247.94,582.75,247.76,583.68,247.76,584.67z"/>
			<path d="M286.63,574.41v21.4c-0.13-0.17-0.42-0.48-0.87-0.92c-0.45-0.45-1-0.99-1.65-1.61c-0.65-0.63-1.38-1.32-2.17-2.08
				c-0.79-0.76-1.6-1.52-2.43-2.3c-0.82-0.78-1.63-1.54-2.41-2.29c-0.79-0.75-1.5-1.43-2.14-2.06c-0.65-0.63-1.19-1.16-1.63-1.6
				c-0.44-0.44-0.72-0.74-0.86-0.91c-0.02-0.04-0.09-0.13-0.22-0.29c-0.13-0.16-0.24-0.3-0.34-0.43l0.08,0.9v12.65h-3.42v-21.37
				c0.13,0.17,0.42,0.47,0.87,0.91c0.45,0.44,1,0.97,1.65,1.58c0.65,0.62,1.38,1.29,2.17,2.02c0.79,0.73,1.6,1.47,2.43,2.23
				c0.82,0.76,1.63,1.5,2.41,2.24c0.79,0.74,1.5,1.41,2.16,2.02c0.65,0.61,1.2,1.13,1.64,1.56c0.44,0.43,0.72,0.73,0.86,0.9
				l0.53,0.79l-0.08-0.95v-12.37H286.63z"/>
			<path d="M289.99,584.67c0-1.42,0.28-2.77,0.83-4.04c0.55-1.27,1.3-2.38,2.24-3.34c0.94-0.95,2.05-1.71,3.31-2.27
				c1.26-0.56,2.61-0.84,4.05-0.84c1.42,0,2.77,0.28,4.04,0.84c1.27,0.56,2.38,1.32,3.34,2.27c0.95,0.95,1.71,2.07,2.26,3.34
				c0.55,1.27,0.83,2.62,0.83,4.04c0,1.44-0.28,2.79-0.83,4.05c-0.55,1.26-1.3,2.37-2.26,3.31c-0.95,0.94-2.07,1.69-3.34,2.23
				c-1.27,0.54-2.62,0.81-4.04,0.81c-1.44,0-2.79-0.27-4.05-0.81c-1.26-0.54-2.37-1.29-3.31-2.23c-0.94-0.94-1.69-2.05-2.24-3.31
				C290.27,587.46,289.99,586.11,289.99,584.67z M293.44,584.67c0,0.99,0.18,1.92,0.55,2.79c0.36,0.87,0.87,1.63,1.51,2.27
				c0.65,0.64,1.39,1.15,2.24,1.53c0.85,0.38,1.77,0.56,2.76,0.56c0.95,0,1.85-0.19,2.71-0.56c0.85-0.37,1.59-0.88,2.21-1.53
				c0.63-0.65,1.12-1.4,1.49-2.27c0.36-0.87,0.55-1.8,0.55-2.79c0-0.99-0.19-1.92-0.56-2.79c-0.37-0.87-0.88-1.63-1.51-2.29
				c-0.64-0.65-1.38-1.17-2.23-1.54c-0.85-0.37-1.76-0.56-2.73-0.56c-0.97,0-1.88,0.19-2.73,0.56c-0.85,0.37-1.59,0.89-2.22,1.54
				c-0.63,0.65-1.12,1.42-1.49,2.29C293.62,582.75,293.44,583.68,293.44,584.67z"/>
			<path d="M314.25,573.51c0.09,0.13,0.3,0.43,0.62,0.88c0.32,0.46,0.71,1.02,1.19,1.68c0.48,0.66,1.01,1.4,1.6,2.2
				c0.59,0.8,1.19,1.62,1.79,2.45c0.61,0.83,1.2,1.65,1.78,2.44c0.58,0.79,1.1,1.52,1.57,2.17c0.47,0.65,0.86,1.2,1.19,1.64
				c0.33,0.44,0.53,0.72,0.6,0.83c0.04-0.06,0.21-0.29,0.5-0.72c0.3-0.42,0.68-0.95,1.14-1.58c0.46-0.64,0.98-1.36,1.56-2.17
				c0.58-0.81,1.18-1.64,1.8-2.48c0.62-0.84,1.22-1.67,1.81-2.5c0.59-0.82,1.13-1.57,1.63-2.24c0.5-0.67,0.91-1.24,1.25-1.71
				c0.34-0.47,0.55-0.77,0.65-0.9v21.34h-3.67v-10.43c0-0.15,0.02-0.31,0.06-0.48c0.04-0.17,0.06-0.27,0.06-0.31l-6.76,9.73
				c-0.09-0.11-0.32-0.42-0.69-0.92c-0.36-0.5-0.8-1.1-1.3-1.79c-0.5-0.69-1.04-1.43-1.6-2.23c-0.56-0.8-1.09-1.53-1.58-2.22
				c-0.5-0.68-0.92-1.26-1.26-1.74c-0.35-0.48-0.54-0.75-0.58-0.83c0,0.04,0.02,0.14,0.06,0.31c0.04,0.17,0.06,0.33,0.06,0.48v10.43
				h-3.45V573.51z"/>
			<path d="M339.62,574.41h3.45v20.44h-3.45V574.41z M339.9,573.26c0.43-0.62,0.86-1.24,1.28-1.88c0.42-0.64,0.85-1.27,1.28-1.91
				h2.89c-0.56,0.64-1.13,1.27-1.71,1.91c-0.58,0.64-1.16,1.26-1.74,1.88H339.9z"/>
			<path d="M360.35,594.85c-0.06-0.13-0.15-0.36-0.29-0.7c-0.14-0.34-0.31-0.75-0.52-1.23c-0.21-0.49-0.43-1.02-0.67-1.61
				c-0.24-0.59-0.5-1.2-0.76-1.84h-7.04l-2.24,5.38h-3.39c0.07-0.17,0.25-0.58,0.53-1.25c0.28-0.66,0.63-1.49,1.05-2.47
				c0.42-0.98,0.89-2.08,1.4-3.28c0.51-1.21,1.04-2.44,1.58-3.69c0.54-1.25,1.07-2.48,1.58-3.69c0.51-1.21,0.98-2.3,1.4-3.28
				c0.42-0.98,0.77-1.8,1.05-2.47c0.28-0.66,0.46-1.08,0.53-1.25c0.07,0.17,0.26,0.59,0.55,1.25c0.29,0.66,0.64,1.49,1.07,2.47
				c0.42,0.98,0.89,2.08,1.4,3.28c0.51,1.21,1.04,2.43,1.58,3.69c0.54,1.25,1.07,2.48,1.58,3.69c0.51,1.21,0.98,2.3,1.4,3.28
				c0.42,0.98,0.77,1.8,1.05,2.47c0.28,0.66,0.46,1.08,0.53,1.25H360.35z M352.24,586.58h4.65l-2.02-4.88
				c-0.02-0.02-0.07-0.14-0.14-0.38c-0.07-0.23-0.13-0.44-0.17-0.63c-0.04,0.19-0.09,0.4-0.17,0.63c-0.08,0.23-0.11,0.36-0.11,0.38
				L352.24,586.58z"/>
			<path d="M383.73,575.56l-1.23,2.8c-0.79-0.28-1.56-0.5-2.33-0.67c-0.77-0.17-1.48-0.25-2.13-0.25c-1.14,0-2.04,0.22-2.71,0.67
				c-0.66,0.45-1,1.02-1,1.71c0,0.6,0.25,1.08,0.74,1.46c0.5,0.37,1.12,0.71,1.86,1.01c0.75,0.3,1.56,0.6,2.43,0.91
				c0.87,0.31,1.68,0.71,2.43,1.19c0.75,0.49,1.37,1.1,1.87,1.85c0.5,0.75,0.74,1.7,0.74,2.86c0,0.9-0.16,1.71-0.49,2.44
				c-0.33,0.73-0.82,1.36-1.47,1.88c-0.66,0.52-1.48,0.93-2.48,1.22c-1,0.29-2.17,0.43-3.52,0.43c-0.82,0-1.57-0.06-2.24-0.17
				c-0.67-0.11-1.28-0.25-1.81-0.42c-0.53-0.17-1-0.35-1.42-0.55c-0.41-0.2-0.77-0.39-1.07-0.58l1.49-3c0.79,0.43,1.63,0.76,2.52,1
				c0.9,0.23,1.69,0.35,2.38,0.35c0.34,0,0.77-0.04,1.3-0.11c0.53-0.07,1.05-0.21,1.56-0.42c0.5-0.21,0.94-0.49,1.3-0.84
				c0.36-0.36,0.55-0.81,0.55-1.37c0-0.65-0.25-1.19-0.74-1.61c-0.5-0.42-1.12-0.79-1.86-1.12c-0.75-0.33-1.56-0.65-2.43-0.97
				c-0.87-0.32-1.68-0.7-2.43-1.14c-0.75-0.44-1.37-0.98-1.87-1.63c-0.5-0.64-0.74-1.46-0.74-2.45c0-0.71,0.14-1.41,0.42-2.09
				c0.28-0.68,0.71-1.29,1.28-1.84c0.57-0.54,1.28-0.98,2.13-1.32c0.85-0.34,1.86-0.5,3.01-0.5c0.73,0,1.43,0.06,2.12,0.18
				c0.68,0.12,1.29,0.26,1.84,0.41c0.54,0.15,0.99,0.29,1.35,0.43C383.44,575.46,383.66,575.54,383.73,575.56z"/>
			<path d="M395.4,595.08c-1.1,0-2.14-0.18-3.1-0.55c-0.96-0.37-1.8-0.87-2.51-1.53c-0.71-0.65-1.27-1.44-1.68-2.37
				c-0.41-0.92-0.62-1.95-0.62-3.07v-13.15h3.42v13.07c0,0.6,0.12,1.16,0.35,1.68c0.23,0.52,0.55,0.98,0.95,1.37
				c0.4,0.39,0.87,0.71,1.42,0.94c0.54,0.23,1.13,0.35,1.77,0.35c0.63,0,1.23-0.12,1.78-0.35c0.55-0.23,1.03-0.55,1.44-0.94
				c0.41-0.39,0.73-0.85,0.97-1.37c0.23-0.52,0.35-1.08,0.35-1.68v-13.07h3.42v13.15c0,1.12-0.21,2.15-0.62,3.07
				c-0.41,0.93-0.98,1.72-1.7,2.37c-0.72,0.65-1.57,1.16-2.54,1.53C397.54,594.89,396.5,595.08,395.4,595.08z"/>
			<path d="M419.85,594.85c-0.06-0.13-0.15-0.36-0.29-0.7c-0.14-0.34-0.31-0.75-0.52-1.23c-0.21-0.49-0.43-1.02-0.67-1.61
				c-0.24-0.59-0.5-1.2-0.76-1.84h-7.04l-2.24,5.38h-3.39c0.07-0.17,0.25-0.58,0.53-1.25c0.28-0.66,0.63-1.49,1.05-2.47
				c0.42-0.98,0.89-2.08,1.4-3.28c0.51-1.21,1.04-2.44,1.59-3.69c0.54-1.25,1.07-2.48,1.58-3.69c0.51-1.21,0.98-2.3,1.4-3.28
				c0.42-0.98,0.77-1.8,1.05-2.47c0.28-0.66,0.46-1.08,0.53-1.25c0.07,0.17,0.26,0.59,0.55,1.25c0.29,0.66,0.64,1.49,1.07,2.47
				s0.89,2.08,1.4,3.28c0.51,1.21,1.04,2.43,1.58,3.69c0.54,1.25,1.07,2.48,1.58,3.69c0.51,1.21,0.98,2.3,1.4,3.28
				c0.42,0.98,0.77,1.8,1.05,2.47c0.28,0.66,0.46,1.08,0.53,1.25H419.85z M411.75,586.58h4.65l-2.02-4.88
				c-0.02-0.02-0.07-0.14-0.14-0.38c-0.07-0.23-0.13-0.44-0.17-0.63c-0.04,0.19-0.09,0.4-0.17,0.63c-0.08,0.23-0.11,0.36-0.11,0.38
				L411.75,586.58z"/>
			<path d="M427.56,600.57h-2.69c0.28-0.56,0.54-1.1,0.79-1.61c0.24-0.51,0.49-1.04,0.73-1.57c0.24-0.53,0.5-1.08,0.76-1.64
				c0.26-0.56,0.55-1.17,0.87-1.82c-0.43-0.84-0.87-1.73-1.33-2.66c-0.46-0.93-0.92-1.88-1.39-2.83c-0.47-0.95-0.93-1.9-1.39-2.83
				c-0.46-0.93-0.89-1.82-1.3-2.66h2.92c0.71,1.38,1.29,2.54,1.74,3.48c0.45,0.93,0.81,1.72,1.09,2.36c0.28,0.64,0.5,1.15,0.65,1.56
				c0.15,0.4,0.27,0.77,0.36,1.11c0.11-0.34,0.24-0.71,0.39-1.11c0.15-0.4,0.36-0.92,0.65-1.56c0.28-0.64,0.64-1.42,1.09-2.36
				c0.45-0.93,1.03-2.09,1.74-3.48h2.89L427.56,600.57z"/>
			<path d="M438.22,594.85v-20.44h13.57v3.11h-10.15v5.5h9.03v3.2h-9.03v5.44h10.54v3.2H438.22z"/>
			<path d="M455.58,574.41h5.3c2.06,0,3.8,0.31,5.23,0.94c1.43,0.63,2.59,1.43,3.49,2.43c0.9,0.99,1.55,2.12,1.95,3.38
				c0.4,1.26,0.6,2.52,0.6,3.77c0,1.53-0.28,2.91-0.83,4.14c-0.55,1.22-1.29,2.27-2.23,3.13c-0.94,0.86-2.02,1.52-3.27,1.98
				c-1.24,0.46-2.56,0.69-3.94,0.69h-6.31V574.41z M461.35,591.6c1.07,0,2.05-0.15,2.94-0.45c0.9-0.3,1.67-0.74,2.33-1.33
				c0.65-0.59,1.16-1.31,1.53-2.16c0.36-0.85,0.55-1.84,0.55-2.96c0-1.27-0.22-2.35-0.66-3.24c-0.44-0.89-1-1.61-1.67-2.16
				c-0.67-0.55-1.42-0.95-2.24-1.21c-0.82-0.25-1.61-0.38-2.36-0.38h-2.75v13.88H461.35z"/>
		</g>
	</g>
</g>
</svg>
