<?xml version="1.0" encoding="utf-8"?>
<!-- Generator: Adobe Illustrator 27.1.0, SVG Export Plug-In . SVG Version: 6.00 Build 0)  -->
<svg version="1.1" id="Capa_1" xmlns="http://www.w3.org/2000/svg" xmlns:xlink="http://www.w3.org/1999/xlink" x="0px" y="0px"
	 viewBox="0 0 683 768" style="enable-background:new 0 0 683 768;" xml:space="preserve">
<style type="text/css">
	.st0{fill:#002E6D;}
	.st1{fill-rule:evenodd;clip-rule:evenodd;fill:#002E6D;}
	.st2{fill-rule:evenodd;clip-rule:evenodd;}
	.st3{fill:#FFFFFF;}
	.st4{fill-rule:evenodd;clip-rule:evenodd;fill:#FFFFFF;}
</style>
<g>
	<g>
		<g>
			<path d="M588.42,649.51H94.58c-11.08,0-20.1-9.01-20.1-20.1V138.6c0-11.09,9.02-20.1,20.1-20.1h493.84
				c11.1,0,20.1,9.02,20.1,20.1v490.8C608.52,640.49,599.52,649.51,588.42,649.51z M94.58,129.97c-4.76,0-8.62,3.87-8.62,8.63v490.8
				c0,4.74,3.86,8.62,8.62,8.62h493.84c4.76,0,8.62-3.88,8.62-8.62V138.6c0-4.76-3.86-8.63-8.62-8.63H94.58z"/>
		</g>
		<g>
			<g>
				<path d="M405.88,506.88l-263.14,0.48c-10.82,0-19.58-8.77-19.58-19.58v-10.59l280.18,0.01L405.88,506.88z"/>
				<g>
					<path class="st2" d="M420.04,201.19l3.44,17.53c0,0,80-16.15,120.94,59.81l16.88-8.25
						C561.3,270.28,524.18,185.72,420.04,201.19z"/>
					<path class="st2" d="M532.65,284.94c0,0-27.24-62.24-106.08-50.53l2.6,13.27l0.66,6.01c0,0,55.31-11.67,84.81,40.99
						L532.65,284.94z"/>
					<path class="st2" d="M432.75,272.1c48.27-7.17,65.48,32.02,65.48,32.02l-7.83,3.82l-9.02,4.78c0,0-13.92-25.78-44.51-21.65
						L432.75,272.1z"/>
				</g>
				<path d="M472.31,369.18h-10.78h-10.78h-37.24c-6.09,0-11.03,4.94-11.03,11.03v120.08c0,6.09,4.94,11.03,11.03,11.03h58.8
					c6.09,0,11.03-4.94,11.03-11.03V380.21C483.34,374.12,478.4,369.18,472.31,369.18z M475.68,495.57h-65.54V379.39h65.54V495.57z"
					/>
				<path d="M142.54,477.62h11.87l-1.7-159.45h293.45l0.42,51.31h11.03l0.33-49.31c0.05-7.18-5.76-13.03-12.94-13.03H154.68
					c-6.71,0-12.14,5.44-12.14,12.14V477.62z"/>
			</g>
			<g>
				<g>
					<g>
						<path d="M339.86,370.11c0,0-0.45-1.26-1.59-1.51c-1.14-0.25-2.98,0.3-2.98,0.3s0.64,1.48,2.17,1.87
							C338.99,371.15,339.86,370.11,339.86,370.11z"/>
						<path d="M338.82,367.54c0,0,0.16-1.24-0.7-1.94c-0.86-0.7-2.66-1.04-2.66-1.04s-0.09,1.5,1.04,2.48
							C337.62,368.03,338.82,367.54,338.82,367.54z"/>
						<path d="M339.41,361.68c0,0,0.6-0.74,0.31-1.53c-0.29-0.79-1.35-1.74-1.35-1.74s-0.66,0.93-0.3,2.02
							C338.42,361.51,339.41,361.68,339.41,361.68z"/>
						<path d="M340.31,357.96c0,0,0.46-0.69,0.14-1.35c-0.32-0.67-1.3-1.4-1.3-1.4s-0.5,0.85-0.1,1.77
							C339.44,357.9,340.31,357.96,340.31,357.96z"/>
						<path d="M340.19,370.46c0,0-0.73-1.16-0.2-2.21c0.53-1.05,2.15-2.14,2.15-2.14s0.79,1.44,0.12,2.89
							C341.59,370.44,340.19,370.46,340.19,370.46z"/>
						<path d="M339.06,367.07c0,0-0.55-1.13,0.04-2.02c0.59-0.89,2.18-1.71,2.18-1.71s0.57,1.39-0.18,2.63
							C340.34,367.2,339.06,367.07,339.06,367.07z"/>
						<path d="M339.96,360.29c0,0-0.23-0.84,0.29-1.38c0.52-0.54,1.73-0.89,1.73-0.89s0.22,1.02-0.46,1.77
							C340.83,360.54,339.96,360.29,339.96,360.29z"/>
						<path d="M340.82,357.19c0,0-0.35-0.8,0.09-1.41c0.44-0.61,1.57-1.13,1.57-1.13s0.36,0.99-0.2,1.83
							C341.71,357.31,340.82,357.19,340.82,357.19z"/>
						<path d="M340.71,354.53c0,0,0.16-0.71-0.31-1.16c-0.46-0.45-1.49-0.75-1.49-0.75s-0.13,0.86,0.47,1.49
							C339.99,354.74,340.71,354.53,340.71,354.53z"/>
						<path d="M340.82,353.39c0,0-0.34-0.57-0.07-1.07c0.27-0.5,1.07-1,1.07-1s0.36,0.71,0.02,1.39
							C341.5,353.4,340.82,353.39,340.82,353.39z"/>
						<path d="M339.76,350.58c0,0-0.8-0.02-1.35-0.72c-0.55-0.7-0.64-1.81-0.64-1.81s1.08,0.35,1.6,1.01
							C339.88,349.72,339.76,350.58,339.76,350.58z"/>
						<g>
							<path d="M342.34,371.55c-0.9-0.05-2.78-0.71-3.39-2.92c-0.65-2.33-0.09-4.6,0.83-8.37c0.11-0.45,0.23-0.92,0.34-1.41
								c1.06-4.39-0.97-8.41-0.99-8.45l0.78-0.4c0.09,0.17,2.2,4.34,1.07,9.06c-0.12,0.5-0.24,0.97-0.35,1.42
								c-0.89,3.63-1.43,5.82-0.84,7.93c0.6,2.14,2.52,2.28,2.6,2.28L342.34,371.55z"/>
						</g>
					</g>
					<path d="M285.91,395.32c0.56,0.36,1.18,0.6,1.74,0.91c-2.8,1.95-5.81,3.75-8.87,5.4c-0.26-0.04-0.52-0.08-0.78-0.11
						c-27.6-3.81-9.24-46.34-9.24-46.34s3.19,10.91,9.9,19.26C276.93,381.42,276.93,389.56,285.91,395.32z"/>
					<g>
						<path d="M301.99,427.13c-21.35,0.26-50.62-12.69-50.62-12.69s15.25-4.29,29.45-11.94c3.06-1.65,6.07-3.45,8.87-5.4
							c4.49,2.42,7.88,4.99,10.43,7.58c0.13,0.14,0.27,0.27,0.4,0.41c0.26,0.27,0.51,0.54,0.75,0.82c0.24,0.27,0.47,0.54,0.69,0.81
							c0.11,0.14,0.22,0.27,0.33,0.41c0.22,0.27,0.42,0.54,0.62,0.81c1.59,2.16,2.66,4.28,3.36,6.27c0.04,0.13,0.09,0.25,0.13,0.37
							c0.9,2.72,1.13,5.18,1.07,7.15c0,0.09-0.01,0.18-0.01,0.27c-0.01,0.27-0.03,0.53-0.05,0.78c-0.01,0.17-0.03,0.33-0.05,0.49
							C307.18,425.63,306.01,427.08,301.99,427.13z"/>
					</g>
					<path d="M340.83,361.87c0,0-7.98-2.46-11.31,27.18c-0.61,5.42-0.01,8.72-2.56,15.63c0-6.4-1.78-11.82-15.81-22.08
						c-1.62-1.19-3.06-2.47-4.34-3.82c0.19-0.56,0.35-1.12,0.48-1.68C313.52,350.11,340.83,361.87,340.83,361.87z"/>
					<g>
						<path d="M324.77,410.57C324.77,410.57,324.77,410.58,324.77,410.57c-0.68,1.84-1.49,3.62-2.47,5.28
							c-3.83,5.75-10.15,9.24-12.35,9.5c-0.54,0.07-1.03-0.18-0.92-0.71c0.12-0.52,0.24-1.18,0.32-1.96
							c0.6-5.52-0.62-16.96-17.68-26.17c-0.56-0.31-1.14-0.61-1.74-0.91c-10.21-5.1-11.04-13.87-8.46-22.46
							c3.72-12.39,14.53-24.39,14.53-24.39s-2.21,18.76,9.87,31.49c1.28,1.35,2.72,2.63,4.34,3.82
							C324.25,394.32,326.76,403.49,324.77,410.57z"/>
						<path d="M295.82,349.19c-1.76,2.03-10.88,12.92-14.21,24c-3.14,10.45-0.32,17.95,8.38,22.29c0.65,0.32,1.22,0.62,1.75,0.91
							c16.93,9.13,18.39,20.4,17.75,26.31c-0.07,0.68-0.18,1.34-0.32,1.97c-0.03,0.15-0.01,0.27,0.08,0.36
							c0.13,0.14,0.39,0.21,0.68,0.17c2.26-0.27,8.46-3.75,12.25-9.43c0.92-1.56,1.74-3.32,2.45-5.24c1.09-3.9,0.67-7.92-1.26-11.96
							c-2.3-4.81-6.76-9.65-13.24-14.39c-1.57-1.15-3.04-2.44-4.36-3.83C294.82,368.8,295.59,352.12,295.82,349.19z"/>
					</g>
				</g>
				<path d="M214.32,463.09c2.85-2.41,5.94-4.53,9.1-6.53c3.16-2,6.44-3.82,9.77-5.53c3.35-1.68,6.77-3.23,10.24-4.64
					c3.47-1.42,7.03-2.65,10.61-3.77c1.79-0.56,3.6-1.08,5.41-1.57c1.81-0.49,3.64-0.92,5.48-1.34c3.67-0.82,7.37-1.5,11.1-2.02
					c3.73-0.53,7.48-0.88,11.23-1.11c3.76-0.24,7.52-0.3,11.28-0.24c1.88,0.02,3.76,0.13,5.64,0.22c1.88,0.14,3.75,0.25,5.62,0.45
					c1.87,0.16,3.74,0.41,5.61,0.63l2.79,0.41c0.46,0.07,0.93,0.13,1.39,0.21l1.39,0.25c7.4,1.3,14.72,3.1,21.85,5.44
					c7.15,2.28,14.1,5.14,20.86,8.32c6.75,3.23,13.32,6.82,19.61,10.82c-13.22-6.89-26.94-12.76-41.16-16.92l-2.67-0.76
					c-0.89-0.26-1.79-0.47-2.68-0.7c-1.79-0.49-3.59-0.9-5.39-1.33c-3.61-0.8-7.23-1.54-10.88-2.09c-1.82-0.31-3.65-0.54-5.48-0.8
					c-1.83-0.2-3.67-0.44-5.51-0.59c-1.84-0.18-3.68-0.28-5.52-0.41c-1.84-0.07-3.69-0.17-5.53-0.18
					c-7.38-0.19-14.76,0.24-22.08,1.16c-7.33,0.89-14.58,2.41-21.7,4.36c-7.12,1.99-14.11,4.49-20.88,7.51
					c-1.69,0.75-3.38,1.54-5.04,2.35c-1.66,0.82-3.31,1.68-4.94,2.56c-1.63,0.88-3.25,1.81-4.83,2.78
					C217.4,461,215.84,462.01,214.32,463.09z"/>
			</g>
		</g>
		<g>
			<path d="M128.81,598.66v-15.82h4.47c0.87,0,1.66,0.12,2.38,0.35c0.72,0.23,1.32,0.56,1.82,1c0.5,0.43,0.89,0.97,1.16,1.61
				c0.27,0.64,0.41,1.35,0.41,2.15c0,0.43-0.04,0.87-0.13,1.3c-0.09,0.43-0.22,0.85-0.41,1.26c-0.19,0.41-0.43,0.78-0.74,1.12
				c-0.3,0.34-0.67,0.63-1.08,0.88c0.32,0.51,0.63,1,0.93,1.49c0.3,0.49,0.61,0.97,0.92,1.46c0.31,0.49,0.63,1,0.97,1.52
				c0.33,0.52,0.69,1.09,1.09,1.69h-3.19c-0.65-1.01-1.27-1.97-1.84-2.88c-0.58-0.9-1.14-1.76-1.67-2.57h-0.22h-2.21v5.45H128.81z
				 M131.46,590.71h2.13c0.55,0,1.01-0.09,1.37-0.28c0.36-0.19,0.65-0.42,0.87-0.68c0.22-0.27,0.37-0.56,0.46-0.87
				c0.09-0.31,0.13-0.6,0.13-0.86c0-0.25-0.04-0.52-0.12-0.83c-0.08-0.31-0.22-0.6-0.43-0.88c-0.21-0.28-0.5-0.51-0.86-0.7
				c-0.36-0.19-0.83-0.28-1.39-0.28h-2.15V590.71z"/>
			<path d="M142.61,598.66v-15.82h10.5v2.41h-7.86v4.25h6.99v2.47h-6.99v4.21h8.16v2.47H142.61z"/>
			<path d="M156.04,598.66v-15.82h2.65v13.3h7.68v2.52H156.04z"/>
			<path d="M178.24,598.66c-0.04-0.1-0.12-0.28-0.23-0.54c-0.11-0.26-0.24-0.58-0.4-0.95c-0.16-0.38-0.33-0.79-0.52-1.25
				c-0.19-0.46-0.38-0.93-0.59-1.42h-5.45l-1.74,4.17h-2.63c0.06-0.13,0.2-0.45,0.41-0.97c0.22-0.51,0.49-1.15,0.81-1.91
				c0.33-0.76,0.69-1.61,1.08-2.54c0.4-0.93,0.81-1.88,1.23-2.85c0.42-0.97,0.83-1.92,1.23-2.85c0.4-0.93,0.76-1.78,1.08-2.54
				c0.33-0.76,0.6-1.4,0.81-1.91c0.22-0.51,0.35-0.84,0.41-0.97c0.06,0.13,0.2,0.45,0.42,0.97c0.22,0.51,0.5,1.15,0.82,1.91
				c0.33,0.76,0.69,1.61,1.08,2.54c0.4,0.93,0.81,1.88,1.23,2.85c0.42,0.97,0.83,1.92,1.23,2.85c0.4,0.93,0.76,1.78,1.08,2.54
				c0.33,0.76,0.6,1.4,0.81,1.91c0.22,0.51,0.35,0.84,0.41,0.97H178.24z M171.97,592.25h3.6l-1.56-3.78
				c-0.01-0.01-0.05-0.11-0.11-0.29c-0.06-0.18-0.1-0.34-0.13-0.49c-0.03,0.14-0.07,0.31-0.13,0.49c-0.06,0.18-0.09,0.28-0.09,0.29
				L171.97,592.25z"/>
			<path d="M193.98,597.48c-0.17,0.12-0.42,0.25-0.73,0.41c-0.31,0.16-0.68,0.31-1.11,0.45c-0.43,0.14-0.91,0.25-1.44,0.35
				c-0.54,0.09-1.11,0.14-1.71,0.14c-1.24,0-2.36-0.21-3.34-0.64c-0.98-0.43-1.82-1-2.5-1.72c-0.68-0.72-1.2-1.57-1.56-2.54
				c-0.36-0.97-0.54-1.99-0.54-3.06c0-1.19,0.22-2.28,0.65-3.29c0.43-1.01,1.02-1.87,1.77-2.6c0.75-0.73,1.61-1.3,2.6-1.7
				c0.99-0.4,2.05-0.61,3.18-0.61c0.43,0,0.87,0.03,1.31,0.1c0.44,0.07,0.86,0.15,1.25,0.25c0.39,0.1,0.73,0.22,1.03,0.35
				c0.3,0.13,0.51,0.27,0.64,0.41c-0.13,0.2-0.23,0.37-0.3,0.5c-0.07,0.13-0.15,0.26-0.23,0.4c-0.08,0.14-0.17,0.29-0.26,0.47
				c-0.09,0.17-0.23,0.41-0.4,0.72c-0.17-0.12-0.38-0.22-0.63-0.3c-0.25-0.09-0.5-0.16-0.77-0.21c-0.27-0.05-0.54-0.09-0.81-0.12
				c-0.28-0.03-0.52-0.04-0.74-0.04c-0.81,0-1.56,0.15-2.25,0.46c-0.69,0.3-1.28,0.71-1.78,1.2c-0.5,0.5-0.89,1.08-1.17,1.75
				c-0.28,0.66-0.42,1.35-0.42,2.06c0,0.69,0.13,1.37,0.4,2.03c0.27,0.66,0.64,1.24,1.13,1.75c0.48,0.51,1.06,0.91,1.73,1.23
				c0.67,0.31,1.4,0.47,2.21,0.47c0.46,0,0.91-0.05,1.35-0.14c0.43-0.09,0.82-0.2,1.15-0.32c0.33-0.12,0.6-0.23,0.81-0.35
				s0.32-0.2,0.34-0.24L193.98,597.48z"/>
			<path d="M195.95,582.84h2.67v15.82h-2.67V582.84z"/>
			<path d="M201.23,590.78c0-1.1,0.21-2.14,0.64-3.12c0.43-0.98,1-1.84,1.74-2.58c0.73-0.74,1.58-1.32,2.56-1.76
				c0.98-0.43,2.02-0.65,3.14-0.65c1.1,0,2.14,0.22,3.12,0.65c0.98,0.43,1.84,1.02,2.58,1.76c0.74,0.74,1.32,1.6,1.75,2.58
				c0.43,0.98,0.64,2.03,0.64,3.12c0,1.11-0.21,2.16-0.64,3.14c-0.43,0.98-1.01,1.83-1.75,2.56c-0.74,0.73-1.6,1.31-2.58,1.72
				c-0.98,0.42-2.03,0.63-3.12,0.63c-1.11,0-2.16-0.21-3.14-0.63c-0.98-0.42-1.83-0.99-2.56-1.72c-0.73-0.73-1.31-1.58-1.74-2.56
				C201.44,592.94,201.23,591.89,201.23,590.78z M203.89,590.78c0,0.77,0.14,1.49,0.42,2.16c0.28,0.67,0.67,1.26,1.17,1.76
				c0.5,0.5,1.08,0.89,1.74,1.18c0.66,0.29,1.37,0.43,2.14,0.43c0.74,0,1.44-0.14,2.09-0.43c0.66-0.29,1.23-0.68,1.71-1.18
				c0.48-0.5,0.87-1.09,1.15-1.76c0.28-0.67,0.42-1.39,0.42-2.16c0-0.77-0.14-1.49-0.43-2.16c-0.29-0.67-0.68-1.26-1.17-1.77
				c-0.49-0.51-1.07-0.9-1.73-1.19c-0.66-0.29-1.36-0.43-2.12-0.43c-0.75,0-1.46,0.15-2.12,0.43c-0.66,0.29-1.23,0.69-1.71,1.19
				c-0.48,0.51-0.87,1.1-1.15,1.77C204.04,589.29,203.89,590.01,203.89,590.78z"/>
			<path d="M233.97,582.84v16.56c-0.1-0.13-0.33-0.37-0.67-0.72c-0.35-0.35-0.77-0.76-1.28-1.25c-0.51-0.48-1.07-1.02-1.68-1.61
				c-0.61-0.59-1.24-1.18-1.88-1.78c-0.64-0.6-1.26-1.19-1.87-1.77c-0.61-0.58-1.16-1.11-1.66-1.6c-0.5-0.48-0.92-0.9-1.26-1.24
				c-0.34-0.34-0.56-0.58-0.66-0.71c-0.01-0.03-0.07-0.1-0.17-0.23c-0.1-0.12-0.19-0.24-0.26-0.34l0.07,0.69v9.79H220v-16.54
				c0.1,0.13,0.33,0.37,0.67,0.71c0.35,0.34,0.77,0.75,1.28,1.23c0.51,0.48,1.07,1,1.68,1.56c0.61,0.56,1.24,1.14,1.88,1.73
				c0.64,0.59,1.26,1.17,1.87,1.74c0.61,0.57,1.16,1.09,1.67,1.56c0.51,0.47,0.93,0.87,1.27,1.2c0.34,0.33,0.56,0.56,0.66,0.69
				l0.41,0.61l-0.06-0.74v-9.57H233.97z"/>
			<path d="M237.62,598.66v-15.82h10.5v2.41h-7.86v4.25h6.99v2.47h-6.99v4.21h8.16v2.47H237.62z"/>
			<path d="M260.38,583.73l-0.95,2.17c-0.61-0.22-1.21-0.39-1.8-0.52c-0.59-0.13-1.14-0.2-1.65-0.2c-0.88,0-1.58,0.17-2.09,0.52
				c-0.51,0.35-0.77,0.79-0.77,1.32c0,0.46,0.19,0.84,0.58,1.13c0.38,0.29,0.86,0.55,1.44,0.78c0.58,0.23,1.21,0.47,1.88,0.71
				c0.67,0.24,1.3,0.55,1.88,0.92c0.58,0.38,1.06,0.85,1.44,1.43c0.38,0.58,0.57,1.32,0.57,2.21c0,0.7-0.13,1.32-0.38,1.89
				c-0.25,0.56-0.63,1.05-1.14,1.45c-0.51,0.41-1.15,0.72-1.92,0.94c-0.77,0.22-1.68,0.34-2.72,0.34c-0.64,0-1.21-0.04-1.74-0.13
				c-0.52-0.09-0.99-0.2-1.4-0.33c-0.41-0.13-0.78-0.27-1.1-0.42c-0.32-0.15-0.59-0.3-0.82-0.45l1.15-2.32
				c0.61,0.33,1.26,0.59,1.95,0.77c0.7,0.18,1.31,0.27,1.84,0.27c0.26,0,0.6-0.03,1.01-0.09c0.41-0.06,0.81-0.17,1.2-0.33
				c0.39-0.16,0.73-0.38,1.01-0.65c0.28-0.27,0.42-0.63,0.42-1.06c0-0.51-0.19-0.92-0.58-1.25c-0.38-0.33-0.87-0.62-1.44-0.87
				c-0.58-0.25-1.2-0.5-1.88-0.75c-0.67-0.25-1.3-0.54-1.88-0.88c-0.58-0.34-1.06-0.76-1.44-1.26c-0.38-0.5-0.58-1.13-0.58-1.9
				c0-0.55,0.11-1.09,0.33-1.62c0.22-0.53,0.55-1,0.99-1.42c0.44-0.42,0.99-0.76,1.65-1.02c0.66-0.26,1.44-0.39,2.33-0.39
				c0.56,0,1.11,0.05,1.64,0.14c0.53,0.09,1,0.2,1.42,0.31c0.42,0.12,0.77,0.23,1.04,0.34
				C260.16,583.65,260.32,583.71,260.38,583.73z"/>
			<path d="M268.39,582.84h2.67v15.82h-2.67V582.84z"/>
			<path d="M288.68,582.84v16.56c-0.1-0.13-0.33-0.37-0.67-0.72c-0.35-0.35-0.77-0.76-1.28-1.25c-0.51-0.48-1.07-1.02-1.68-1.61
				c-0.61-0.59-1.24-1.18-1.88-1.78c-0.64-0.6-1.26-1.19-1.87-1.77c-0.61-0.58-1.16-1.11-1.66-1.6c-0.5-0.48-0.92-0.9-1.26-1.24
				c-0.34-0.34-0.56-0.58-0.66-0.71c-0.01-0.03-0.07-0.1-0.17-0.23c-0.1-0.12-0.19-0.24-0.26-0.34l0.07,0.69v9.79h-2.65v-16.54
				c0.1,0.13,0.33,0.37,0.67,0.71c0.35,0.34,0.77,0.75,1.28,1.23c0.51,0.48,1.07,1,1.68,1.56c0.61,0.56,1.24,1.14,1.88,1.73
				c0.64,0.59,1.26,1.17,1.87,1.74s1.16,1.09,1.67,1.56c0.51,0.47,0.93,0.87,1.27,1.2c0.34,0.33,0.56,0.56,0.66,0.69l0.41,0.61
				l-0.06-0.74v-9.57H288.68z"/>
			<path d="M301.81,582.84v2.54h-3.91v13.28h-2.67v-13.28h-3.82v-2.54H301.81z"/>
			<path d="M304.54,598.66v-15.82h10.5v2.41h-7.86v4.25h6.99v2.47h-6.99v4.21h8.16v2.47H304.54z"/>
			<path d="M317.98,598.66v-15.82h4.47c0.87,0,1.66,0.12,2.38,0.35c0.72,0.23,1.32,0.56,1.82,1c0.5,0.43,0.89,0.97,1.16,1.61
				c0.27,0.64,0.41,1.35,0.41,2.15c0,0.43-0.04,0.87-0.13,1.3c-0.09,0.43-0.22,0.85-0.41,1.26c-0.19,0.41-0.43,0.78-0.74,1.12
				c-0.3,0.34-0.67,0.63-1.08,0.88c0.32,0.51,0.63,1,0.93,1.49c0.3,0.49,0.61,0.97,0.92,1.46c0.31,0.49,0.63,1,0.97,1.52
				c0.33,0.52,0.69,1.09,1.08,1.69h-3.19c-0.65-1.01-1.27-1.97-1.84-2.88c-0.58-0.9-1.14-1.76-1.67-2.57h-0.22h-2.21v5.45H317.98z
				 M320.62,590.71h2.13c0.55,0,1.01-0.09,1.37-0.28c0.36-0.19,0.65-0.42,0.87-0.68c0.22-0.27,0.37-0.56,0.46-0.87
				c0.09-0.31,0.13-0.6,0.13-0.86c0-0.25-0.04-0.52-0.12-0.83c-0.08-0.31-0.22-0.6-0.43-0.88c-0.21-0.28-0.5-0.51-0.86-0.7
				c-0.36-0.19-0.83-0.28-1.39-0.28h-2.15V590.71z"/>
			<path d="M345.75,582.84v16.56c-0.1-0.13-0.33-0.37-0.67-0.72c-0.35-0.35-0.77-0.76-1.28-1.25c-0.51-0.48-1.07-1.02-1.68-1.61
				c-0.61-0.59-1.24-1.18-1.88-1.78s-1.26-1.19-1.87-1.77c-0.61-0.58-1.16-1.11-1.66-1.6c-0.5-0.48-0.92-0.9-1.26-1.24
				c-0.34-0.34-0.56-0.58-0.66-0.71c-0.01-0.03-0.07-0.1-0.17-0.23c-0.1-0.12-0.19-0.24-0.26-0.34l0.07,0.69v9.79h-2.65v-16.54
				c0.1,0.13,0.33,0.37,0.67,0.71c0.35,0.34,0.77,0.75,1.28,1.23c0.51,0.48,1.07,1,1.68,1.56c0.61,0.56,1.24,1.14,1.88,1.73
				c0.64,0.59,1.26,1.17,1.87,1.74c0.61,0.57,1.16,1.09,1.67,1.56c0.51,0.47,0.93,0.87,1.27,1.2c0.34,0.33,0.56,0.56,0.66,0.69
				l0.41,0.61l-0.06-0.74v-9.57H345.75z"/>
			<path d="M359.12,598.66c-0.04-0.1-0.12-0.28-0.23-0.54c-0.11-0.26-0.24-0.58-0.4-0.95c-0.16-0.38-0.33-0.79-0.52-1.25
				c-0.19-0.46-0.38-0.93-0.59-1.42h-5.45l-1.74,4.17h-2.63c0.06-0.13,0.2-0.45,0.41-0.97c0.22-0.51,0.49-1.15,0.81-1.91
				c0.33-0.76,0.69-1.61,1.08-2.54c0.4-0.93,0.81-1.88,1.23-2.85c0.42-0.97,0.83-1.92,1.23-2.85c0.4-0.93,0.76-1.78,1.08-2.54
				c0.33-0.76,0.6-1.4,0.81-1.91c0.22-0.51,0.35-0.84,0.41-0.97c0.06,0.13,0.2,0.45,0.42,0.97c0.22,0.51,0.5,1.15,0.82,1.91
				c0.33,0.76,0.69,1.61,1.08,2.54c0.4,0.93,0.81,1.88,1.23,2.85c0.42,0.97,0.83,1.92,1.23,2.85c0.4,0.93,0.76,1.78,1.09,2.54
				c0.33,0.76,0.6,1.4,0.81,1.91c0.22,0.51,0.35,0.84,0.41,0.97H359.12z M352.85,592.25h3.6l-1.56-3.78
				c-0.01-0.01-0.05-0.11-0.11-0.29c-0.06-0.18-0.1-0.34-0.13-0.49c-0.03,0.14-0.07,0.31-0.13,0.49c-0.06,0.18-0.09,0.28-0.09,0.29
				L352.85,592.25z"/>
			<path d="M374.86,597.48c-0.17,0.12-0.42,0.25-0.73,0.41c-0.31,0.16-0.68,0.31-1.11,0.45c-0.43,0.14-0.91,0.25-1.44,0.35
				c-0.54,0.09-1.11,0.14-1.71,0.14c-1.24,0-2.36-0.21-3.34-0.64c-0.98-0.43-1.82-1-2.5-1.72c-0.68-0.72-1.2-1.57-1.56-2.54
				c-0.36-0.97-0.54-1.99-0.54-3.06c0-1.19,0.22-2.28,0.65-3.29c0.43-1.01,1.02-1.87,1.77-2.6c0.75-0.73,1.61-1.3,2.6-1.7
				c0.99-0.4,2.05-0.61,3.18-0.61c0.43,0,0.87,0.03,1.31,0.1c0.44,0.07,0.86,0.15,1.25,0.25c0.39,0.1,0.73,0.22,1.03,0.35
				c0.3,0.13,0.51,0.27,0.64,0.41c-0.13,0.2-0.23,0.37-0.3,0.5c-0.07,0.13-0.15,0.26-0.23,0.4c-0.08,0.14-0.17,0.29-0.26,0.47
				c-0.09,0.17-0.23,0.41-0.4,0.72c-0.17-0.12-0.38-0.22-0.63-0.3c-0.25-0.09-0.5-0.16-0.77-0.21c-0.27-0.05-0.54-0.09-0.81-0.12
				c-0.28-0.03-0.52-0.04-0.74-0.04c-0.81,0-1.56,0.15-2.25,0.46c-0.69,0.3-1.28,0.71-1.78,1.2c-0.5,0.5-0.89,1.08-1.17,1.75
				c-0.28,0.66-0.42,1.35-0.42,2.06c0,0.69,0.13,1.37,0.4,2.03c0.27,0.66,0.64,1.24,1.13,1.75c0.48,0.51,1.06,0.91,1.73,1.23
				c0.67,0.31,1.4,0.47,2.21,0.47c0.46,0,0.91-0.05,1.35-0.14c0.43-0.09,0.82-0.2,1.15-0.32c0.33-0.12,0.6-0.23,0.81-0.35
				c0.21-0.12,0.32-0.2,0.34-0.24L374.86,597.48z"/>
			<path d="M376.83,582.84h2.67v15.82h-2.67V582.84z"/>
			<path d="M382.1,590.78c0-1.1,0.21-2.14,0.64-3.12c0.43-0.98,1-1.84,1.74-2.58c0.73-0.74,1.58-1.32,2.56-1.76
				c0.98-0.43,2.02-0.65,3.14-0.65c1.1,0,2.14,0.22,3.13,0.65c0.98,0.43,1.84,1.02,2.58,1.76c0.74,0.74,1.32,1.6,1.75,2.58
				c0.43,0.98,0.64,2.03,0.64,3.12c0,1.11-0.21,2.16-0.64,3.14c-0.43,0.98-1.01,1.83-1.75,2.56c-0.74,0.73-1.6,1.31-2.58,1.72
				c-0.98,0.42-2.03,0.63-3.13,0.63c-1.11,0-2.16-0.21-3.14-0.63c-0.98-0.42-1.83-0.99-2.56-1.72c-0.73-0.73-1.31-1.58-1.74-2.56
				C382.32,592.94,382.1,591.89,382.1,590.78z M384.77,590.78c0,0.77,0.14,1.49,0.42,2.16c0.28,0.67,0.67,1.26,1.17,1.76
				c0.5,0.5,1.08,0.89,1.74,1.18c0.66,0.29,1.37,0.43,2.14,0.43c0.74,0,1.44-0.14,2.09-0.43c0.66-0.29,1.23-0.68,1.71-1.18
				c0.48-0.5,0.87-1.09,1.15-1.76c0.28-0.67,0.42-1.39,0.42-2.16c0-0.77-0.14-1.49-0.43-2.16c-0.29-0.67-0.68-1.26-1.17-1.77
				c-0.49-0.51-1.07-0.9-1.73-1.19c-0.66-0.29-1.36-0.43-2.12-0.43c-0.75,0-1.46,0.15-2.12,0.43c-0.66,0.29-1.23,0.69-1.71,1.19
				c-0.48,0.51-0.87,1.1-1.15,1.77C384.91,589.29,384.77,590.01,384.77,590.78z"/>
			<path d="M414.85,582.84v16.56c-0.1-0.13-0.33-0.37-0.67-0.72c-0.35-0.35-0.77-0.76-1.28-1.25c-0.51-0.48-1.07-1.02-1.68-1.61
				c-0.61-0.59-1.24-1.18-1.88-1.78c-0.64-0.6-1.26-1.19-1.87-1.77c-0.61-0.58-1.16-1.11-1.66-1.6c-0.5-0.48-0.92-0.9-1.26-1.24
				c-0.34-0.34-0.56-0.58-0.66-0.71c-0.01-0.03-0.07-0.1-0.17-0.23c-0.1-0.12-0.19-0.24-0.26-0.34l0.07,0.69v9.79h-2.65v-16.54
				c0.1,0.13,0.33,0.37,0.67,0.71c0.35,0.34,0.77,0.75,1.28,1.23c0.51,0.48,1.07,1,1.68,1.56c0.61,0.56,1.24,1.14,1.88,1.73
				c0.64,0.59,1.26,1.17,1.87,1.74c0.61,0.57,1.16,1.09,1.67,1.56c0.51,0.47,0.93,0.87,1.27,1.2c0.34,0.33,0.56,0.56,0.66,0.69
				l0.41,0.61l-0.06-0.74v-9.57H414.85z"/>
			<path d="M428.22,598.66c-0.04-0.1-0.12-0.28-0.23-0.54c-0.11-0.26-0.24-0.58-0.4-0.95c-0.16-0.38-0.33-0.79-0.52-1.25
				c-0.19-0.46-0.38-0.93-0.59-1.42h-5.45l-1.74,4.17h-2.63c0.06-0.13,0.2-0.45,0.41-0.97c0.22-0.51,0.49-1.15,0.81-1.91
				c0.33-0.76,0.69-1.61,1.08-2.54c0.4-0.93,0.81-1.88,1.23-2.85c0.42-0.97,0.83-1.92,1.23-2.85c0.4-0.93,0.76-1.78,1.08-2.54
				c0.33-0.76,0.6-1.4,0.81-1.91c0.22-0.51,0.35-0.84,0.41-0.97c0.06,0.13,0.2,0.45,0.42,0.97c0.22,0.51,0.5,1.15,0.82,1.91
				c0.33,0.76,0.69,1.61,1.08,2.54c0.4,0.93,0.81,1.88,1.23,2.85c0.42,0.97,0.83,1.92,1.23,2.85c0.4,0.93,0.76,1.78,1.08,2.54
				c0.33,0.76,0.6,1.4,0.81,1.91c0.22,0.51,0.35,0.84,0.41,0.97H428.22z M421.94,592.25h3.6l-1.56-3.78
				c-0.01-0.01-0.05-0.11-0.11-0.29c-0.06-0.18-0.1-0.34-0.13-0.49c-0.03,0.14-0.07,0.31-0.13,0.49c-0.06,0.18-0.09,0.28-0.09,0.29
				L421.94,592.25z"/>
			<path d="M432.67,598.66v-15.82h2.65v13.3H443v2.52H432.67z"/>
			<path d="M445.14,598.66v-15.82h10.5v2.41h-7.86v4.25h6.99v2.47h-6.99v4.21h8.16v2.47H445.14z"/>
			<path d="M467.91,583.73l-0.96,2.17c-0.61-0.22-1.21-0.39-1.8-0.52c-0.59-0.13-1.14-0.2-1.65-0.2c-0.88,0-1.58,0.17-2.09,0.52
				c-0.51,0.35-0.77,0.79-0.77,1.32c0,0.46,0.19,0.84,0.58,1.13c0.38,0.29,0.86,0.55,1.44,0.78c0.58,0.23,1.2,0.47,1.88,0.71
				c0.67,0.24,1.3,0.55,1.88,0.92c0.58,0.38,1.06,0.85,1.44,1.43c0.38,0.58,0.57,1.32,0.57,2.21c0,0.7-0.13,1.32-0.38,1.89
				c-0.25,0.56-0.63,1.05-1.14,1.45c-0.51,0.41-1.15,0.72-1.92,0.94c-0.77,0.22-1.68,0.34-2.72,0.34c-0.64,0-1.21-0.04-1.74-0.13
				c-0.52-0.09-0.99-0.2-1.4-0.33c-0.41-0.13-0.78-0.27-1.1-0.42c-0.32-0.15-0.59-0.3-0.82-0.45l1.15-2.32
				c0.61,0.33,1.26,0.59,1.95,0.77c0.7,0.18,1.31,0.27,1.84,0.27c0.26,0,0.6-0.03,1.01-0.09c0.41-0.06,0.81-0.17,1.2-0.33
				c0.39-0.16,0.73-0.38,1.01-0.65c0.28-0.27,0.42-0.63,0.42-1.06c0-0.51-0.19-0.92-0.58-1.25c-0.38-0.33-0.87-0.62-1.44-0.87
				c-0.58-0.25-1.2-0.5-1.88-0.75c-0.67-0.25-1.3-0.54-1.88-0.88c-0.58-0.34-1.06-0.76-1.44-1.26c-0.38-0.5-0.58-1.13-0.58-1.9
				c0-0.55,0.11-1.09,0.33-1.62c0.22-0.53,0.55-1,0.99-1.42c0.44-0.42,0.99-0.76,1.65-1.02c0.66-0.26,1.44-0.39,2.33-0.39
				c0.56,0,1.11,0.05,1.64,0.14c0.53,0.09,1,0.2,1.42,0.31c0.42,0.12,0.77,0.23,1.04,0.34
				C467.68,583.65,467.85,583.71,467.91,583.73z"/>
			<path d="M485.25,583.73l-0.96,2.17c-0.61-0.22-1.21-0.39-1.8-0.52c-0.59-0.13-1.14-0.2-1.65-0.2c-0.88,0-1.58,0.17-2.09,0.52
				c-0.51,0.35-0.77,0.79-0.77,1.32c0,0.46,0.19,0.84,0.58,1.13c0.38,0.29,0.86,0.55,1.44,0.78c0.58,0.23,1.21,0.47,1.88,0.71
				c0.67,0.24,1.3,0.55,1.88,0.92c0.58,0.38,1.06,0.85,1.44,1.43c0.38,0.58,0.57,1.32,0.57,2.21c0,0.7-0.13,1.32-0.38,1.89
				c-0.25,0.56-0.63,1.05-1.14,1.45c-0.51,0.41-1.15,0.72-1.92,0.94c-0.77,0.22-1.68,0.34-2.72,0.34c-0.64,0-1.21-0.04-1.74-0.13
				c-0.52-0.09-0.99-0.2-1.4-0.33c-0.41-0.13-0.78-0.27-1.1-0.42c-0.32-0.15-0.59-0.3-0.82-0.45l1.15-2.32
				c0.61,0.33,1.26,0.59,1.95,0.77c0.7,0.18,1.31,0.27,1.84,0.27c0.26,0,0.6-0.03,1.01-0.09c0.41-0.06,0.81-0.17,1.2-0.33
				c0.39-0.16,0.73-0.38,1.01-0.65c0.28-0.27,0.42-0.63,0.42-1.06c0-0.51-0.19-0.92-0.58-1.25c-0.38-0.33-0.87-0.62-1.44-0.87
				c-0.58-0.25-1.2-0.5-1.88-0.75c-0.67-0.25-1.3-0.54-1.88-0.88c-0.58-0.34-1.06-0.76-1.44-1.26c-0.38-0.5-0.58-1.13-0.58-1.9
				c0-0.55,0.11-1.09,0.33-1.62c0.22-0.53,0.55-1,0.99-1.42c0.44-0.42,0.99-0.76,1.65-1.02c0.66-0.26,1.44-0.39,2.33-0.39
				c0.56,0,1.11,0.05,1.64,0.14c0.53,0.09,1,0.2,1.42,0.31c0.42,0.12,0.77,0.23,1.04,0.34
				C485.02,583.65,485.19,583.71,485.25,583.73z"/>
			<path d="M494.28,598.83c-0.85,0-1.65-0.14-2.4-0.42c-0.75-0.28-1.39-0.68-1.94-1.18c-0.55-0.51-0.98-1.12-1.3-1.83
				c-0.32-0.72-0.48-1.51-0.48-2.38v-10.18h2.65v10.11c0,0.46,0.09,0.9,0.27,1.3c0.18,0.41,0.43,0.76,0.74,1.06
				c0.31,0.3,0.68,0.55,1.1,0.73c0.42,0.18,0.88,0.27,1.37,0.27c0.49,0,0.95-0.09,1.38-0.27c0.43-0.18,0.8-0.42,1.12-0.73
				c0.32-0.3,0.57-0.66,0.75-1.06c0.18-0.41,0.27-0.84,0.27-1.3v-10.11h2.65v10.18c0,0.87-0.16,1.66-0.48,2.38
				c-0.32,0.72-0.76,1.33-1.31,1.83c-0.56,0.51-1.21,0.9-1.96,1.18C495.93,598.69,495.13,598.83,494.28,598.83z"/>
			<path d="M513.2,598.66c-0.04-0.1-0.12-0.28-0.23-0.54c-0.11-0.26-0.24-0.58-0.4-0.95c-0.16-0.38-0.33-0.79-0.52-1.25
				c-0.19-0.46-0.38-0.93-0.59-1.42h-5.45l-1.74,4.17h-2.63c0.06-0.13,0.2-0.45,0.41-0.97c0.22-0.51,0.49-1.15,0.81-1.91
				c0.33-0.76,0.69-1.61,1.08-2.54c0.4-0.93,0.81-1.88,1.23-2.85c0.42-0.97,0.83-1.92,1.23-2.85c0.4-0.93,0.76-1.78,1.08-2.54
				c0.33-0.76,0.6-1.4,0.81-1.91c0.22-0.51,0.35-0.84,0.41-0.97c0.06,0.13,0.2,0.45,0.42,0.97c0.22,0.51,0.5,1.15,0.82,1.91
				c0.33,0.76,0.69,1.61,1.08,2.54c0.4,0.93,0.81,1.88,1.23,2.85c0.42,0.97,0.83,1.92,1.23,2.85c0.4,0.93,0.76,1.78,1.08,2.54
				c0.33,0.76,0.6,1.4,0.81,1.91c0.22,0.51,0.35,0.84,0.41,0.97H513.2z M506.93,592.25h3.6l-1.56-3.78
				c-0.01-0.01-0.05-0.11-0.11-0.29c-0.06-0.18-0.1-0.34-0.13-0.49c-0.03,0.14-0.07,0.31-0.13,0.49c-0.06,0.18-0.09,0.28-0.09,0.29
				L506.93,592.25z"/>
			<path d="M519.17,603.08h-2.08c0.22-0.43,0.42-0.85,0.61-1.25c0.19-0.4,0.38-0.8,0.56-1.22c0.19-0.41,0.38-0.84,0.59-1.27
				c0.2-0.43,0.43-0.9,0.67-1.41c-0.33-0.65-0.68-1.34-1.03-2.06c-0.35-0.72-0.71-1.45-1.07-2.19c-0.36-0.74-0.72-1.47-1.07-2.19
				c-0.35-0.72-0.69-1.41-1.01-2.06h2.26c0.55,1.07,1,1.97,1.35,2.69c0.35,0.72,0.63,1.33,0.85,1.82c0.22,0.49,0.38,0.89,0.5,1.2
				c0.12,0.31,0.21,0.6,0.28,0.86c0.09-0.26,0.19-0.55,0.3-0.86c0.12-0.31,0.28-0.71,0.5-1.2c0.22-0.49,0.5-1.1,0.85-1.82
				c0.35-0.72,0.8-1.62,1.35-2.69h2.24L519.17,603.08z"/>
			<path d="M527.42,598.66v-15.82h10.5v2.41h-7.86v4.25h6.99v2.47h-6.99v4.21h8.16v2.47H527.42z"/>
			<path d="M540.85,582.84h4.1c1.59,0,2.94,0.24,4.05,0.73c1.11,0.49,2.01,1.11,2.7,1.88c0.69,0.77,1.2,1.64,1.51,2.61
				c0.31,0.98,0.47,1.95,0.47,2.92c0,1.19-0.21,2.25-0.64,3.2c-0.43,0.95-1,1.75-1.72,2.42c-0.72,0.66-1.57,1.18-2.53,1.53
				c-0.96,0.35-1.98,0.53-3.05,0.53h-4.88V582.84z M545.32,596.14c0.83,0,1.58-0.12,2.28-0.35c0.69-0.23,1.29-0.58,1.8-1.03
				c0.51-0.46,0.9-1.01,1.18-1.67c0.28-0.66,0.42-1.42,0.42-2.29c0-0.98-0.17-1.82-0.51-2.51c-0.34-0.69-0.77-1.24-1.29-1.67
				c-0.52-0.43-1.1-0.74-1.74-0.93c-0.64-0.2-1.24-0.29-1.82-0.29h-2.13v10.74H545.32z"/>
		</g>
	</g>
</g>
</svg>
